<svg width="432" height="432" viewBox="0 0 432 432" fill="none" xmlns="http://www.w3.org/2000/svg">
<mask id="mask0_543_103" style="mask-type:luminance" maskUnits="userSpaceOnUse" x="0" y="0" width="432" height="432">
<path d="M0 0H432V432H0V0Z" fill="white"/>
</mask>
<g mask="url(#mask0_543_103)">
<path d="M85.974 0H346.026C347.438 0 348.844 0.0312503 350.245 0.0989583C351.651 0.171876 353.057 0.276042 354.453 0.411458C355.854 0.552084 357.25 0.723958 358.641 0.927083C360.036 1.13542 361.422 1.375 362.802 1.65104C364.182 1.92188 365.552 2.23438 366.917 2.57292C368.281 2.91667 369.641 3.29167 370.984 3.69792C372.333 4.10938 373.667 4.54687 374.99 5.02083C376.318 5.49479 377.63 6.00521 378.927 6.54167C380.229 7.07813 381.516 7.65104 382.786 8.25C384.057 8.85417 385.313 9.48438 386.557 10.151C387.797 10.8125 389.021 11.5052 390.229 12.2292C391.432 12.9531 392.62 13.7031 393.792 14.4844C394.964 15.2656 396.109 16.0781 397.24 16.9167C398.37 17.7552 399.479 18.6198 400.568 19.5104C401.656 20.4063 402.719 21.3229 403.766 22.2708C404.807 23.2135 405.823 24.1823 406.818 25.1771C407.813 26.1719 408.786 27.1927 409.729 28.2344C410.672 29.276 411.594 30.3438 412.484 31.4271C413.38 32.5156 414.245 33.625 415.083 34.7552C415.922 35.8854 416.729 37.0365 417.51 38.2083C418.292 39.375 419.047 40.5625 419.771 41.7708C420.49 42.9792 421.188 44.2031 421.849 45.4427C422.51 46.6823 423.146 47.9375 423.745 49.2135C424.349 50.4844 424.917 51.7708 425.458 53.0677C425.995 54.3698 426.5 55.6823 426.974 57.0052C427.448 58.3333 427.891 59.6667 428.297 61.0104C428.708 62.3594 429.083 63.7135 429.422 65.0781C429.766 66.4427 430.073 67.8177 430.349 69.1979C430.625 70.5781 430.865 71.9635 431.068 73.3542C431.276 74.7448 431.448 76.1406 431.589 77.5417C431.724 78.9427 431.828 80.3438 431.896 81.75C431.964 83.1563 432 84.5625 432 85.9688V346.026C432 347.432 431.964 348.839 431.896 350.245C431.828 351.651 431.724 353.052 431.589 354.453C431.448 355.854 431.276 357.25 431.068 358.641C430.865 360.031 430.625 361.417 430.349 362.797C430.073 364.177 429.766 365.552 429.422 366.917C429.083 368.281 428.708 369.635 428.297 370.984C427.891 372.328 427.448 373.667 426.974 374.99C426.5 376.313 425.995 377.625 425.458 378.927C424.917 380.224 424.349 381.51 423.745 382.781C423.146 384.057 422.51 385.313 421.849 386.552C421.188 387.792 420.49 389.016 419.771 390.224C419.047 391.432 418.292 392.62 417.51 393.792C416.729 394.958 415.922 396.109 415.083 397.24C414.245 398.37 413.38 399.479 412.484 400.568C411.594 401.651 410.672 402.719 409.729 403.76C408.786 404.802 407.813 405.823 406.818 406.818C405.823 407.813 404.807 408.781 403.766 409.729C402.719 410.672 401.656 411.589 400.568 412.484C399.479 413.375 398.37 414.24 397.24 415.078C396.109 415.917 394.964 416.729 393.792 417.51C392.62 418.292 391.432 419.042 390.229 419.766C389.021 420.49 387.797 421.182 386.557 421.844C385.313 422.51 384.057 423.141 382.786 423.745C381.516 424.344 380.229 424.917 378.927 425.453C377.63 425.99 376.318 426.5 374.99 426.974C373.667 427.448 372.333 427.885 370.984 428.297C369.641 428.703 368.281 429.078 366.917 429.422C365.552 429.76 364.182 430.073 362.802 430.344C361.422 430.62 360.036 430.859 358.641 431.068C357.25 431.276 355.854 431.448 354.453 431.583C353.057 431.724 351.651 431.823 350.245 431.896C348.844 431.964 347.438 432 346.026 432H85.974C84.5625 432 83.1563 431.964 81.7552 431.896C80.349 431.823 78.9427 431.724 77.5469 431.583C76.1458 431.448 74.75 431.276 73.3594 431.068C71.9635 430.859 70.5781 430.62 69.1979 430.344C67.8177 430.073 66.4479 429.76 65.0833 429.422C63.7188 429.078 62.3594 428.703 61.0156 428.297C59.6667 427.885 58.3333 427.448 57.0104 426.974C55.6823 426.5 54.3698 425.99 53.0729 425.453C51.7708 424.917 50.4844 424.344 49.2135 423.745C47.9427 423.141 46.6875 422.51 45.4427 421.844C44.2031 421.182 42.9792 420.49 41.7708 419.766C40.5677 419.042 39.3802 418.292 38.2083 417.51C37.0365 416.729 35.8906 415.917 34.7604 415.078C33.6302 414.24 32.5208 413.375 31.4323 412.484C30.3437 411.589 29.2813 410.672 28.2344 409.729C27.1927 408.781 26.1771 407.813 25.1823 406.818C24.1875 405.823 23.2135 404.802 22.2708 403.76C21.3281 402.719 20.4063 401.651 19.5156 400.568C18.6198 399.479 17.7552 398.37 16.9167 397.24C16.0781 396.109 15.2708 394.958 14.4896 393.792C13.7083 392.62 12.9531 391.432 12.2292 390.224C11.5104 389.016 10.8125 387.792 10.151 386.552C9.48958 385.313 8.85417 384.057 8.25521 382.781C7.65104 381.51 7.08333 380.224 6.54167 378.927C6.00521 377.625 5.5 376.313 5.02604 374.99C4.55208 373.667 4.10937 372.328 3.70313 370.984C3.29167 369.635 2.91667 368.281 2.57813 366.917C2.23437 365.552 1.92708 364.177 1.65104 362.797C1.375 361.417 1.13542 360.031 0.932292 358.641C0.723958 357.25 0.552082 355.854 0.411458 354.453C0.276041 353.052 0.171875 351.651 0.104167 350.245C0.0364587 348.839 0 347.432 0 346.026V85.9688C0 84.5625 0.0364587 83.1563 0.104167 81.75C0.171875 80.3438 0.276041 78.9427 0.411458 77.5417C0.552082 76.1406 0.723958 74.7448 0.932292 73.3542C1.13542 71.9635 1.375 70.5781 1.65104 69.1979C1.92708 67.8177 2.23437 66.4427 2.57813 65.0781C2.91667 63.7135 3.29167 62.3594 3.70313 61.0104C4.10937 59.6667 4.55208 58.3333 5.02604 57.0052C5.5 55.6823 6.00521 54.3698 6.54167 53.0677C7.08333 51.7708 7.65104 50.4844 8.25521 49.2135C8.85417 47.9375 9.48958 46.6823 10.151 45.4427C10.8125 44.2031 11.5104 42.9792 12.2292 41.7708C12.9531 40.5625 13.7083 39.375 14.4896 38.2083C15.2708 37.0365 16.0781 35.8854 16.9167 34.7552C17.7552 33.625 18.6198 32.5156 19.5156 31.4271C20.4063 30.3438 21.3281 29.276 22.2708 28.2344C23.2135 27.1927 24.1875 26.1719 25.1823 25.1771C26.1771 24.1823 27.1927 23.2135 28.2344 22.2708C29.2813 21.3229 30.3437 20.4063 31.4323 19.5104C32.5208 18.6198 33.6302 17.7552 34.7604 16.9167C35.8906 16.0781 37.0365 15.2656 38.2083 14.4844C39.3802 13.7031 40.5677 12.9531 41.7708 12.2292C42.9792 11.5052 44.2031 10.8125 45.4427 10.151C46.6875 9.48438 47.9427 8.85417 49.2135 8.25C50.4844 7.65104 51.7708 7.07813 53.0729 6.54167C54.3698 6.00521 55.6823 5.49479 57.0104 5.02083C58.3333 4.54687 59.6667 4.10938 61.0156 3.69792C62.3594 3.29167 63.7188 2.91667 65.0833 2.57292C66.4479 2.23438 67.8177 1.92188 69.1979 1.65104C70.5781 1.375 71.9635 1.13542 73.3594 0.927083C74.75 0.723958 76.1458 0.552084 77.5469 0.411458C78.9427 0.276042 80.349 0.171876 81.7552 0.0989583C83.1563 0.0312503 84.5625 0 85.974 0Z" fill="#E6E6E6"/>
</g>
<path d="M58 273.703V132.849L198.229 246.151C203.198 250.5 209.62 252.781 215.833 252.781C222.047 252.781 228.469 250.5 233.438 246.151L373.667 132.849V273.703C373.667 298.349 353.578 318.443 328.927 318.443H102.74C78.0885 318.443 58 298.349 58 273.703ZM217.698 227.51L218.109 227.094L358.135 114H73.7396L214.177 227.51C215.214 228.339 216.661 228.339 217.698 227.51Z" fill="black"/>
</svg>
