<svg width="430" height="98" viewBox="0 0 430 98" fill="none" xmlns="http://www.w3.org/2000/svg">
<path d="M32.5546 38.7635C27.8539 38.7635 24.3101 38.8562 21.9234 39.0416C19.5334 39.2269 17.9698 39.5413 17.2293 39.9815C16.8921 40.2198 16.6607 40.6766 16.5285 41.3451C16.3963 42.017 16.3302 43.2615 16.3302 45.0785V50.427C16.3302 58.3009 16.4624 63.2655 16.7269 65.3208C16.9979 67.3695 17.4872 68.614 18.1946 69.0542C18.7301 69.3554 19.5731 69.7095 20.7202 70.1133C22.8358 70.7852 23.8936 71.6093 23.8936 72.589C23.8936 73.8334 22.9581 74.7436 21.0904 75.3162C19.2293 75.8888 16.1616 76.1767 11.8873 76.1767C7.65601 76.1767 4.61476 75.8987 2.76357 75.3427C0.918985 74.7866 0 73.8698 0 72.589C0 71.6093 0.965265 70.8017 2.8958 70.1663C4.82633 69.5242 5.92713 69.0145 6.2015 68.6438C6.73702 67.9752 7.11387 65.5194 7.32544 61.2829C7.54362 57.0399 7.65601 49.2819 7.65601 38.0089C7.65601 26.8353 7.54362 19.1501 7.32544 14.9467C7.11387 10.7368 6.73702 8.29749 6.2015 7.62562C5.92713 7.25493 4.82633 6.75185 2.8958 6.11638C0.965265 5.47429 0 4.68327 0 3.74661C0 2.43265 0.93882 1.47945 2.81646 0.887007C4.70071 0.297876 7.72543 0 11.8873 0C16.0558 0 19.097 0.297876 21.0111 0.887007C22.9317 1.47945 23.8936 2.43265 23.8936 3.74661C23.8936 4.64686 22.8656 5.43789 20.8127 6.11638C19.6028 6.48707 18.7301 6.82466 18.1946 7.12254C17.4872 7.52963 16.9979 8.86676 16.7269 11.1339C16.4624 13.4044 16.3302 18.3425 16.3302 25.9483V27.6164C16.3302 29.066 16.3963 30.0755 16.5285 30.6481C16.6607 31.2141 16.8921 31.6145 17.2293 31.8528C18.0029 32.2599 19.6425 32.5479 22.1482 32.7134C24.6506 32.8822 29.3811 32.9649 36.3363 32.9649C42.3923 32.9649 46.746 32.8822 49.4004 32.7134C52.0516 32.5479 53.7507 32.2599 54.4912 31.8528C54.8615 31.6509 55.1127 31.2703 55.2449 30.7143C55.3771 30.1583 55.4433 29.1256 55.4433 27.6164V24.3861C55.4433 17.4489 55.3044 12.941 55.0334 10.8559C54.7689 8.77409 54.283 7.52963 53.5788 7.12254C53.0764 6.82466 52.2202 6.48707 51.0136 6.11638C48.9575 5.43789 47.9327 4.64686 47.9327 3.74661C47.9327 2.43265 48.8616 1.47945 50.7227 0.887007C52.5904 0.297876 55.6085 0 59.7803 0C63.9488 0 66.9736 0.297876 68.8512 0.887007C70.7354 1.47945 71.6809 2.43265 71.6809 3.74661C71.6809 4.68327 70.7288 5.47429 68.8247 6.11638C66.9273 6.75185 65.8496 7.25493 65.5852 7.62562C65.01 8.3339 64.6067 10.932 64.3687 15.4233C64.1307 19.918 64.0116 27.4443 64.0116 38.0089C64.0116 48.514 64.1307 56.0668 64.3687 60.674C64.6067 65.2811 64.9769 67.9388 65.4794 68.6438C65.7769 69.0145 66.8843 69.5242 68.7983 70.1663C70.7189 70.8017 71.6809 71.6093 71.6809 72.589C71.6809 73.8698 70.7553 74.7866 68.9041 75.3427C67.0595 75.8987 64.0183 76.1767 59.7803 76.1767C55.549 76.1767 52.5144 75.8987 50.683 75.3427C48.8484 74.7866 47.9327 73.8698 47.9327 72.589C47.9327 71.6093 48.9773 70.7852 51.0665 70.1133C52.2367 69.7095 53.0764 69.3554 53.5788 69.0542C54.2565 68.614 54.7193 67.3331 54.9672 65.2149C55.2218 63.0967 55.3507 59.1118 55.3507 53.2602V43.3177C55.3507 41.8714 55.2218 40.9447 54.9672 40.5376C54.7193 40.1338 54.2565 39.8094 53.5788 39.5711C52.8384 39.3063 50.6698 39.1078 47.0732 38.9754C43.4832 38.8364 38.6437 38.7635 32.5546 38.7635Z" fill="#11283B"/>
<path d="M112.1 45.0783C112.133 44.6745 112.159 44.2542 112.179 43.8206C112.196 43.3804 112.206 42.7217 112.206 41.848C112.206 36.7047 111.399 33.0143 109.786 30.7802C108.173 28.5396 105.548 27.4176 101.918 27.4176C100.074 27.4176 98.4142 27.7717 96.9332 28.4767C95.4523 29.185 94.0705 30.2739 92.7945 31.7467C92.53 32.0909 92.1268 32.6171 91.5912 33.3221C89.9053 35.7051 88.2095 36.8966 86.5004 36.8966C85.4591 36.8966 84.6162 36.5789 83.9749 35.9434C83.3402 35.3013 83.0228 34.4408 83.0228 33.3618C83.0228 30.8729 84.9435 28.5396 88.788 26.3584C92.6391 24.1707 97.0523 23.0752 102.024 23.0752C108.239 23.0752 112.83 24.6241 115.802 27.7221C118.781 30.8133 120.272 35.6224 120.272 42.1525C120.272 44.0324 120.235 46.5412 120.166 49.6722C120.103 52.7966 120.073 54.9876 120.073 56.2387C120.073 62.3551 120.232 66.2473 120.549 67.9154C120.867 69.5835 121.429 70.4176 122.242 70.4176C122.576 70.4176 123.002 70.3613 123.524 70.2455C124.043 70.123 124.371 70.0601 124.503 70.0601C124.979 70.0601 125.339 70.2057 125.587 70.497C125.842 70.7816 125.971 71.1556 125.971 71.6223C125.971 72.8072 125.194 74.002 123.643 75.2101C122.1 76.4181 120.49 77.0238 118.817 77.0238C116.834 77.0238 114.665 74.8725 112.311 70.5632C112.106 70.1925 111.941 69.8946 111.809 69.6629H111.095C108.774 71.9864 106.321 73.7008 103.73 74.8129C101.145 75.915 98.2886 76.4677 95.1614 76.4677C90.1896 76.4677 86.2128 75.124 83.2344 72.4299C80.2626 69.7391 78.7783 66.1248 78.7783 61.5872C78.7783 56.2056 80.7518 51.9989 84.7021 48.9705C88.6492 45.9355 94.173 44.4163 101.27 44.4163C103.049 44.4163 104.84 44.4792 106.639 44.6017C108.437 44.7175 110.255 44.8764 112.1 45.0783ZM112.1 49.5133C110.318 49.2154 108.678 48.997 107.181 48.8646C105.69 48.7322 104.305 48.666 103.029 48.666C97.925 48.666 94.0507 49.7086 91.4061 51.7904C88.7682 53.8755 87.4525 56.9006 87.4525 60.8723C87.4525 64.1754 88.3814 66.7603 90.2425 68.6303C92.1102 70.4937 94.692 71.4237 97.9911 71.4237C102.196 71.4237 105.597 70.123 108.199 67.5182C110.797 64.9069 112.1 61.4482 112.1 57.1389V49.5133Z" fill="#11283B"/>
<path d="M147.187 32.7665C149.336 29.4667 151.61 26.9347 154.01 25.1673C156.416 23.4032 158.764 22.5195 161.058 22.5195C162.935 22.5195 164.449 23.112 165.606 24.2935C166.77 25.4685 167.352 27.0141 167.352 28.9272C167.352 30.6151 166.823 32.0052 165.765 33.0974C164.707 34.183 163.372 34.7258 161.758 34.7258C160.311 34.7258 159.117 34.2757 158.175 33.3754C157.24 32.4686 156.654 31.2043 156.416 29.5891C152.853 30.7277 150.374 32.5381 148.972 35.0171C147.577 37.4894 146.883 42.8479 146.883 51.0891C146.883 57.2783 146.965 61.7431 147.134 64.4869C147.299 67.234 147.57 68.8557 147.941 69.3588C148.45 70.1267 149.627 70.6496 151.471 70.921C152.079 70.9938 152.569 71.06 152.939 71.1196C153.679 71.252 154.264 71.4903 154.697 71.8345C155.137 72.1721 155.359 72.5891 155.359 73.0922C155.359 74.1712 154.397 74.9556 152.476 75.4487C150.562 75.9319 147.574 76.1769 143.511 76.1769C139.878 76.1769 137.263 75.9319 135.67 75.4487C134.073 74.9556 133.277 74.1712 133.277 73.0922C133.277 72.2184 133.981 71.5664 135.392 71.1328C136.8 70.6926 137.673 70.3054 138.01 69.9678C138.546 69.4912 138.926 68.399 139.147 66.6846C139.366 64.9635 139.478 61.9682 139.478 57.6953C139.478 51.9066 139.402 47.1042 139.253 43.2914C139.101 39.472 138.857 36.6322 138.513 34.7788C138.318 33.3688 137.984 32.4024 137.508 31.8794C137.038 31.3598 136.017 31.0983 134.44 31.0983H133.475C132.936 31.0983 132.457 30.8965 132.034 30.4894C131.617 30.0856 131.412 29.599 131.412 29.0331C131.412 28.391 131.663 27.8085 132.166 27.2855C132.668 26.7659 133.594 26.1867 134.943 25.5512C136.652 24.6444 138.295 23.9096 139.875 23.3536C141.461 22.7975 142.572 22.5195 143.207 22.5195C144.113 22.5195 144.82 23.2543 145.323 24.7172C145.825 26.1735 146.241 28.7551 146.579 32.462L147.187 32.7665Z" fill="#11283B"/>
<path d="M184.389 30.794C184.389 31.4029 184.435 31.8001 184.534 31.9855C184.64 32.1708 184.792 32.2635 184.997 32.2635C185.463 32.2635 186.121 31.6909 186.967 30.5424C187.337 30.0393 187.605 29.6686 187.774 29.4303C189.615 27.1466 191.575 25.4388 193.658 24.3069C195.747 23.1783 198.015 22.6123 200.468 22.6123C202.953 22.6123 205.221 23.1121 207.277 24.1083C209.33 25.0979 211.092 26.5376 212.566 28.4242C213.175 29.202 213.763 30.1717 214.338 31.3368C214.91 32.4952 215.347 33.071 215.647 33.071C216.219 33.071 216.923 32.4157 217.763 31.0984C218.299 30.2611 218.771 29.5727 219.178 29.0332C220.923 26.809 222.827 25.1873 224.89 24.1613C226.959 23.1286 229.359 22.6123 232.083 22.6123C235.713 22.6123 238.88 23.4662 241.577 25.1674C244.281 26.862 246.209 29.2285 247.356 32.2635C248.06 34.0739 248.562 36.1756 248.863 38.5652C249.17 40.9581 249.326 44.3572 249.326 48.7592V57.6954C249.326 62.2761 249.422 65.3575 249.617 66.9362C249.818 68.5182 250.159 69.5277 250.635 69.9679C251.005 70.3055 251.894 70.6927 253.306 71.1329C254.714 71.5665 255.422 72.2185 255.422 73.0923C255.422 74.1713 254.622 74.9557 253.028 75.4488C251.432 75.932 248.853 76.177 245.293 76.177C241.729 76.177 239.148 75.932 237.544 75.4488C235.948 74.9557 235.151 74.1713 235.151 73.0923C235.151 72.2185 235.931 71.54 237.491 71.0535C239.058 70.5603 240.047 69.9944 240.453 69.3589C240.787 68.7499 241.022 66.9858 241.154 64.0634C241.286 61.1342 241.352 55.564 241.352 47.3558C241.352 40.9945 240.562 36.4437 238.986 33.7065C237.405 30.9628 234.837 29.5892 231.277 29.5892C228.791 29.5892 226.285 30.4166 223.766 32.0649C221.244 33.7065 219.29 35.8082 217.908 38.3666C217.512 39.1444 217.227 40.5246 217.062 42.5104C216.894 44.4896 216.811 48.1038 216.811 53.3531V57.6954C216.811 62.2761 216.907 65.3575 217.102 66.9362C217.304 68.5182 217.644 69.5277 218.12 69.9679C218.49 70.3055 219.396 70.6927 220.844 71.1329C222.289 71.5665 223.012 72.2185 223.012 73.0923C223.012 74.1713 222.219 74.9557 220.632 75.4488C219.052 75.932 216.5 76.177 212.976 76.177C209.476 76.177 206.947 75.932 205.386 75.4488C203.826 74.9557 203.046 74.1713 203.046 73.0923C203.046 72.2185 203.826 71.54 205.386 71.0535C206.947 70.5603 207.929 69.9944 208.335 69.3589C208.669 68.8227 208.904 67.3267 209.036 64.8709C209.175 62.4085 209.247 56.5701 209.247 47.3558C209.247 40.9945 208.448 36.4437 206.854 33.7065C205.258 30.9628 202.663 29.5892 199.066 29.5892C196.606 29.5892 194.088 30.4332 191.516 32.1178C188.95 33.7959 186.944 35.9141 185.499 38.4725C185.129 39.1444 184.868 40.0347 184.719 41.1468C184.567 42.2522 184.494 44.1189 184.494 46.7468V49.0107C184.494 56.5834 184.561 61.7267 184.693 64.434C184.825 67.1447 185.056 68.7863 185.394 69.3589C185.797 69.9944 186.782 70.5603 188.342 71.0535C189.909 71.54 190.696 72.2185 190.696 73.0923C190.696 74.1713 189.896 74.9557 188.303 75.4488C186.706 75.932 184.124 76.177 180.554 76.177C176.957 76.177 174.352 75.932 172.739 75.4488C171.126 74.9557 170.32 74.1713 170.32 73.0923C170.32 72.2185 171.1 71.54 172.66 71.0535C174.227 70.5603 175.215 69.9944 175.622 69.3589C175.992 68.6904 176.25 66.8501 176.402 63.8383C176.551 60.8198 176.627 55.8784 176.627 49.0107C176.627 43.7946 176.514 39.7567 176.296 36.8971C176.075 34.0375 175.747 32.29 175.318 31.6545C175.017 31.1779 173.972 30.8171 172.184 30.5689C170.402 30.314 169.513 29.5991 169.513 28.4242C169.513 27.2161 170.931 25.9452 173.771 24.6114C176.617 23.2809 179.331 22.6123 181.916 22.6123C182.822 22.6123 183.463 22.8837 183.833 23.4199C184.203 23.9594 184.389 24.9688 184.389 26.4516V30.794Z" fill="#11283B"/>
<path d="M269.781 47.7526C269.781 54.885 271.477 60.7797 274.872 65.4398C278.263 70.0999 282.482 72.4299 287.526 72.4299C292.663 72.4299 296.706 70.5831 299.651 66.8828C302.593 63.1858 304.068 58.0524 304.068 51.4859C304.068 44.6547 302.299 38.9719 298.765 34.4342C295.238 29.89 290.835 27.6162 285.556 27.6162C280.918 27.6162 277.126 29.4696 274.184 33.1765C271.249 36.8768 269.781 41.7355 269.781 47.7526ZM260.71 50.7313C260.71 42.7284 263.305 36.0593 268.498 30.7273C273.688 25.3887 280.168 22.7178 287.936 22.7178C295.321 22.7178 301.4 25.167 306.17 30.0654C310.947 34.9572 313.337 41.1861 313.337 48.7587C313.337 56.8709 310.765 63.626 305.628 69.0275C300.488 74.429 294.118 77.1297 286.521 77.1297C279.196 77.1297 273.06 74.5978 268.115 69.5306C263.176 64.4667 260.71 58.1981 260.71 50.7313Z" fill="#11283B"/>
<path d="M333.498 30.794C333.498 31.4029 333.545 31.8001 333.644 31.9855C333.749 32.1708 333.902 32.2635 334.106 32.2635C334.573 32.2635 335.26 31.6412 336.169 30.3968C336.91 29.3476 337.531 28.5533 338.034 28.0138C339.61 26.1967 341.439 24.8431 343.521 23.9494C345.61 23.0591 347.981 22.6123 350.635 22.6123C355.448 22.6123 359.289 23.8535 362.165 26.3324C365.038 28.8048 367.045 32.5944 368.182 37.7047C368.383 38.6148 368.532 39.7534 368.631 41.1203C368.737 42.4806 368.79 44.3043 368.79 46.588C368.79 47.3294 368.77 48.5275 368.737 50.1757C368.701 51.8273 368.684 53.1247 368.684 54.068C368.684 55.8155 368.711 57.6656 368.763 59.6151C368.816 61.5678 368.889 63.6 368.988 65.7182C369.058 67.2738 369.226 68.3627 369.491 68.9882C369.762 69.6071 370.235 70.1135 370.906 70.5107C371.177 70.6894 371.699 70.8748 372.466 71.0667C374.079 71.5102 374.886 72.1854 374.886 73.0923C374.886 74.1713 374.096 74.9557 372.519 75.4488C370.939 75.932 368.354 76.177 364.757 76.177C361.193 76.177 358.622 75.932 357.035 75.4488C355.455 74.9557 354.668 74.1713 354.668 73.0923C354.668 72.2185 355.438 71.54 356.982 71.0535C358.532 70.5603 359.511 69.9944 359.917 69.3589C360.251 68.8227 360.486 67.3267 360.618 64.8709C360.757 62.4085 360.83 56.5701 360.83 47.3558C360.83 40.9581 359.931 36.4006 358.132 33.68C356.334 30.9528 353.379 29.5892 349.273 29.5892C346.619 29.5892 344.149 30.1783 341.868 31.35C339.584 32.5249 337.551 34.2725 335.773 36.5926C334.959 37.5723 334.397 38.6711 334.08 39.8891C333.763 41.1005 333.604 42.8943 333.604 45.2773V49.0107C333.604 56.5834 333.67 61.7267 333.802 64.434C333.935 67.1447 334.166 68.7863 334.503 69.3589C334.906 69.9944 335.892 70.5603 337.452 71.0535C339.019 71.54 339.806 72.2185 339.806 73.0923C339.806 74.1713 339.006 74.9557 337.412 75.4488C335.816 75.932 333.234 76.177 329.664 76.177C326.067 76.177 323.462 75.932 321.849 75.4488C320.236 74.9557 319.429 74.1713 319.429 73.0923C319.429 72.2185 320.209 71.54 321.77 71.0535C323.336 70.5603 324.325 69.9944 324.731 69.3589C325.102 68.6904 325.36 66.8501 325.512 63.8383C325.66 60.8198 325.736 55.8784 325.736 49.0107C325.736 43.7946 325.624 39.7567 325.406 36.8971C325.184 34.0375 324.857 32.29 324.427 31.6545C324.127 31.1779 323.082 30.8171 321.294 30.5689C319.512 30.314 318.623 29.5991 318.623 28.4242C318.623 27.2161 320.041 25.9452 322.88 24.6114C325.727 23.2809 328.44 22.6123 331.026 22.6123C331.931 22.6123 332.573 22.8837 332.943 23.4199C333.313 23.9594 333.498 24.9688 333.498 26.4516V30.794Z" fill="#11283B"/>
<path d="M404.329 65.4131C404.795 65.4131 406.055 62.5899 408.111 56.9402L408.455 56.0267L410.068 51.5917C414.306 40.2856 416.428 33.557 416.428 31.4023C416.428 30.4591 415.41 29.6018 413.373 28.834C411.337 28.0595 410.319 27.2652 410.319 26.451C410.319 25.4117 411.033 24.6736 412.461 24.2401C413.889 23.7999 416.302 23.5781 419.707 23.5781C423.099 23.5781 425.512 23.7999 426.94 24.2401C428.368 24.6736 429.082 25.4117 429.082 26.451C429.082 27.1923 428.358 27.8146 426.914 28.3177C426.206 28.556 425.671 28.7612 425.3 28.9266C423.72 29.5985 422.259 31.687 420.91 35.1887C420.54 36.1617 420.236 36.9494 419.998 37.5584C417.175 44.6545 414.008 53.2134 410.491 63.2287C406.98 73.2373 404.66 79.5523 403.522 82.1736C401.132 87.5916 398.65 91.4441 396.078 93.7311C393.513 96.0248 390.448 97.1733 386.888 97.1733C384.568 97.1733 382.69 96.5974 381.255 95.4522C379.827 94.3037 379.113 92.8077 379.113 90.9642C379.113 89.6138 379.523 88.5018 380.343 87.628C381.169 86.7542 382.207 86.3173 383.45 86.3173C384.392 86.3173 385.173 86.5225 385.791 86.9396C386.415 87.3632 387.014 88.1112 387.589 89.1902C387.622 89.2597 387.688 89.3788 387.787 89.5476C388.597 90.9576 389.605 91.6659 390.815 91.6659C392.726 91.6659 394.538 90.3585 396.25 87.7471C397.969 85.1424 398.828 82.1769 398.828 78.8506C398.828 75.0841 394.293 62.2291 385.222 40.2856L382.749 34.3281C382.174 32.8818 381.645 31.7565 381.163 30.9522C380.677 30.1413 380.197 29.5687 379.721 29.2311C379.589 29.1252 378.921 28.8935 377.725 28.5295C376.535 28.1588 375.94 27.5333 375.94 26.6496C375.94 25.5739 376.726 24.7928 378.307 24.3063C379.893 23.823 382.465 23.5781 386.029 23.5781C389.853 23.5781 392.564 23.8164 394.161 24.293C395.764 24.763 396.567 25.5474 396.567 26.6496C396.567 27.1626 396.422 27.5697 396.131 27.8675C395.847 28.1687 395.354 28.4203 394.65 28.6222C394.445 28.695 394.194 28.7777 393.896 28.8737C392.177 29.4496 391.318 30.2241 391.318 31.2037C391.318 32.1404 391.8 34.1924 392.772 37.3598C393.751 40.5206 395.047 44.1514 396.66 48.2555C399.681 55.8645 401.632 60.6272 402.504 62.5403C403.384 64.4566 403.992 65.4131 404.329 65.4131Z" fill="#11283B"/>
</svg>
