<svg width="677" height="583" viewBox="0 0 677 583" fill="none" xmlns="http://www.w3.org/2000/svg">
<g clip-path="url(#clip0_540_2)">
<mask id="mask0_540_2" style="mask-type:luminance" maskUnits="userSpaceOnUse" x="-1" y="0" width="142" height="570">
<path d="M-0.333496 0.666992H141V569.677H-0.333496V0.666992Z" fill="white"/>
</mask>
<g mask="url(#mask0_540_2)">
<path d="M119.349 568.995C119.214 568.995 119.073 568.99 118.937 568.99C100.276 568.641 80.7343 565.172 64.2239 542.344C50.7552 523.729 47.5729 501.735 46.3021 484.646C44.3593 458.5 45.9739 432.615 47.5312 407.584C48.8229 386.849 50.0364 367.271 49.3958 347.636C49.0052 335.761 47.8333 322.25 42.1146 312.136C37.6875 304.313 29.5781 298.828 22.9323 299.177C21.5416 299.245 20.1562 299.177 18.776 298.974C17.3958 298.776 16.0468 298.443 14.7343 297.979C13.4166 297.516 12.1562 296.927 10.9583 296.224C9.75518 295.516 8.63018 294.698 7.58851 293.771C6.54685 292.849 5.59893 291.834 4.75518 290.724C3.90622 289.615 3.17705 288.438 2.55726 287.188C1.93747 285.938 1.44789 284.641 1.0781 283.297C0.713512 281.948 0.479138 280.584 0.374971 279.193C0.276013 277.802 0.307263 276.412 0.47393 275.026C0.640596 273.646 0.942679 272.287 1.36976 270.964C1.80205 269.636 2.35414 268.365 3.03122 267.146C3.7083 265.922 4.49476 264.781 5.3906 263.714C6.29164 262.646 7.28122 261.677 8.36976 260.802C9.4531 259.927 10.6146 259.167 11.8489 258.516C13.0833 257.87 14.3698 257.344 15.7031 256.943C17.0364 256.542 18.401 256.271 19.7864 256.136C31.2239 255.005 40.7343 244.292 45.0833 234.167C51.0989 220.177 51.6979 202.854 52.2708 186.104L56.2239 70.4638C56.6406 58.4117 57.2031 41.9065 65.5937 26.969C75.3802 9.53147 97.3698 -4.40603 120.437 2.68251C121.786 3.09918 123.078 3.63563 124.318 4.30751C125.562 4.97418 126.724 5.75543 127.812 6.65126C128.901 7.54709 129.891 8.54189 130.786 9.63043C131.677 10.7242 132.458 11.8908 133.125 13.1304C133.786 14.3752 134.323 15.6721 134.734 17.0211C135.146 18.37 135.422 19.745 135.562 21.1461C135.708 22.5471 135.708 23.9533 135.578 25.3544C135.443 26.7554 135.177 28.1356 134.771 29.4846C134.37 30.8336 133.839 32.1356 133.182 33.3804C132.526 34.6304 131.755 35.8023 130.865 36.8961C129.979 37.9898 128.995 38.9898 127.911 39.8908C126.828 40.7971 125.672 41.5836 124.432 42.2606C123.193 42.9377 121.906 43.4846 120.557 43.9065C119.214 44.3283 117.844 44.62 116.443 44.7711C115.042 44.9273 113.635 44.9429 112.234 44.8231C110.828 44.6981 109.448 44.4429 108.094 44.0523C105.974 44.8023 104.354 46.1513 103.24 48.1044C99.9896 53.8856 99.6771 63.0627 99.375 71.9377L95.4166 187.584C94.7396 207.36 93.9687 229.771 84.7448 251.219C80.8177 260.443 75.4479 268.735 68.6458 276.094C72.9635 280.552 76.6458 285.485 79.6979 290.886C90.0156 309.136 91.9843 329.099 92.5416 346.219C93.2552 367.906 91.9166 389.438 90.6198 410.266C89.0885 434.938 87.6354 458.24 89.3593 481.448C90.2031 492.854 92.0937 507.209 99.2031 517.042C103.766 523.349 106.542 525.578 119.745 525.823C121.151 525.849 122.547 526.016 123.922 526.313C125.297 526.61 126.63 527.042 127.927 527.599C129.219 528.162 130.443 528.844 131.604 529.641C132.76 530.443 133.833 531.349 134.818 532.36C135.797 533.365 136.672 534.464 137.443 535.646C138.208 536.823 138.854 538.068 139.38 539.375C139.901 540.683 140.297 542.031 140.557 543.417C140.818 544.797 140.937 546.198 140.927 547.604C140.917 549.016 140.766 550.406 140.479 551.787C140.193 553.167 139.776 554.505 139.229 555.802C138.682 557.099 138.01 558.334 137.224 559.5C136.432 560.667 135.536 561.745 134.536 562.74C133.536 563.729 132.453 564.615 131.276 565.396C130.104 566.172 128.865 566.828 127.562 567.365C126.26 567.901 124.917 568.308 123.536 568.584C122.151 568.854 120.76 568.995 119.349 568.995Z" fill="#0B4F6C"/>
</g>
<path d="M551.083 567.719C550.734 567.719 550.385 567.719 550.042 567.714C549.339 567.709 548.63 567.672 547.932 567.599C547.229 567.521 546.531 567.417 545.844 567.276C545.151 567.131 544.469 566.959 543.797 566.75C543.12 566.542 542.458 566.297 541.807 566.026C541.156 565.75 540.521 565.448 539.901 565.11C539.281 564.776 538.677 564.407 538.094 564.016C537.51 563.62 536.948 563.198 536.401 562.745C535.859 562.297 535.339 561.818 534.844 561.318C534.349 560.818 533.875 560.292 533.432 559.745C532.984 559.198 532.568 558.631 532.182 558.042C531.792 557.454 531.432 556.849 531.099 556.224C530.771 555.599 530.474 554.964 530.203 554.308C529.937 553.657 529.703 552.99 529.5 552.318C529.297 551.641 529.13 550.954 528.995 550.266C528.859 549.573 528.76 548.875 528.693 548.172C528.625 547.469 528.594 546.766 528.594 546.058C528.599 545.355 528.635 544.651 528.703 543.948C528.776 543.245 528.88 542.552 529.021 541.86C529.161 541.167 529.333 540.485 529.542 539.808C529.745 539.136 529.984 538.474 530.255 537.818C530.531 537.167 530.833 536.532 531.167 535.912C531.5 535.292 531.865 534.688 532.255 534.099C532.651 533.516 533.068 532.948 533.521 532.407C533.969 531.86 534.443 531.339 534.943 530.839C535.443 530.344 535.964 529.87 536.51 529.422C537.057 528.974 537.62 528.558 538.208 528.167C538.797 527.776 539.401 527.412 540.021 527.084C540.646 526.75 541.281 526.448 541.932 526.177C542.589 525.912 543.25 525.672 543.927 525.469C544.599 525.266 545.286 525.094 545.974 524.954C546.667 524.818 547.365 524.714 548.068 524.646C548.771 524.579 549.474 524.542 550.177 524.542C550.453 524.542 550.766 524.542 551.057 524.542C563.656 524.542 566.474 522.349 571.135 516.256C578.521 506.594 580.797 492.287 581.958 480.901C584.313 457.745 583.5 434.412 582.641 409.704C581.917 388.855 581.167 367.297 582.469 345.641C583.5 328.537 586.01 308.631 596.818 290.662C600.021 285.339 603.839 280.506 608.281 276.157C601.677 268.625 596.542 260.198 592.865 250.881C584.224 229.188 584.068 206.766 583.938 186.985L583.141 71.2816C583.078 62.4014 583.016 53.2243 579.938 47.3754C578.88 45.4066 577.313 44.0264 575.229 43.2295C573.865 43.5889 572.479 43.8077 571.073 43.8962C569.661 43.9795 568.26 43.9274 566.865 43.7399C565.469 43.5524 564.104 43.2295 562.766 42.7712C561.432 42.3181 560.156 41.7347 558.938 41.0264C557.719 40.3233 556.578 39.5004 555.521 38.5733C554.458 37.641 553.5 36.6202 552.641 35.5004C551.781 34.3858 551.042 33.1931 550.411 31.9274C549.786 30.667 549.292 29.3545 548.922 27.9952C548.552 26.6358 548.318 25.2504 548.224 23.8441C548.125 22.4379 548.167 21.0368 548.344 19.6358C548.521 18.2399 548.828 16.8702 549.276 15.5316C549.719 14.1931 550.292 12.9118 550.984 11.6879C551.682 10.4639 552.49 9.31286 553.411 8.24515C554.333 7.17744 555.349 6.2139 556.458 5.34411C557.568 4.47432 558.755 3.72432 560.01 3.0837C561.271 2.44828 562.578 1.94307 563.932 1.56286C587.214 -4.95276 608.807 9.55765 618.13 27.2504C626.12 42.4118 626.229 58.9274 626.313 70.9899L627.109 186.688C627.224 203.443 627.339 220.766 632.969 234.907C637.042 245.115 646.234 256.052 657.62 257.469C659 257.641 660.354 257.943 661.682 258.375C663.005 258.813 664.276 259.37 665.495 260.052C666.708 260.73 667.849 261.521 668.917 262.422C669.979 263.323 670.948 264.318 671.818 265.412C672.688 266.5 673.443 267.662 674.089 268.896C674.734 270.131 675.255 271.417 675.651 272.756C676.047 274.094 676.313 275.454 676.448 276.844C676.578 278.23 676.578 279.62 676.438 281.006C676.302 282.396 676.031 283.756 675.63 285.094C675.234 286.427 674.708 287.714 674.057 288.948C673.406 290.177 672.646 291.339 671.771 292.427C670.896 293.511 669.927 294.506 668.859 295.401C667.792 296.302 666.651 297.089 665.432 297.766C664.214 298.443 662.938 298.995 661.615 299.422C660.286 299.855 658.932 300.151 657.547 300.323C656.161 300.49 654.776 300.521 653.385 300.422C646.734 299.912 638.469 305.188 633.818 312.917C627.818 322.886 626.281 336.365 625.563 348.235C624.38 367.849 625.068 387.448 625.786 408.204C626.661 433.266 627.563 459.188 624.906 485.276C623.172 502.313 619.391 524.214 605.432 542.474C588.635 564.443 569.422 567.719 551.083 567.719Z" fill="#0B4F6C"/>
<path d="M139.594 84.9268H300.709C301.276 84.9268 301.839 84.9788 302.391 85.0934C302.948 85.2028 303.49 85.3643 304.011 85.583C304.537 85.8018 305.031 86.0674 305.505 86.3799C305.974 86.6976 306.412 87.0518 306.813 87.4528C307.214 87.8538 307.573 88.2913 307.886 88.7653C308.203 89.234 308.469 89.734 308.688 90.2549C308.901 90.7809 309.068 91.3174 309.177 91.8747C309.287 92.432 309.344 92.9945 309.344 93.5622V122.838C309.344 123.406 309.287 123.968 309.177 124.526C309.068 125.083 308.901 125.619 308.688 126.146C308.469 126.666 308.203 127.166 307.886 127.635C307.573 128.109 307.214 128.547 306.813 128.948C306.412 129.349 305.974 129.703 305.505 130.021C305.031 130.333 304.537 130.599 304.011 130.817C303.49 131.036 302.948 131.198 302.391 131.307C301.839 131.422 301.276 131.474 300.709 131.474H139.594C139.026 131.474 138.469 131.422 137.912 131.307C137.354 131.198 136.813 131.036 136.292 130.817C135.766 130.599 135.271 130.333 134.797 130.021C134.328 129.703 133.891 129.349 133.49 128.948C133.089 128.547 132.729 128.109 132.417 127.635C132.099 127.166 131.833 126.666 131.62 126.146C131.401 125.619 131.235 125.083 131.125 124.526C131.016 123.968 130.958 123.406 130.958 122.838V93.5622C130.958 92.9945 131.016 92.432 131.125 91.8747C131.235 91.3174 131.401 90.7809 131.62 90.2549C131.833 89.734 132.099 89.234 132.417 88.7653C132.729 88.2913 133.089 87.8538 133.49 87.4528C133.891 87.0518 134.328 86.6976 134.797 86.3799C135.271 86.0674 135.766 85.8018 136.292 85.583C136.813 85.3643 137.354 85.2028 137.912 85.0934C138.469 84.9788 139.026 84.9268 139.594 84.9268Z" fill="#65D0E7"/>
<path d="M282.068 172.511H530.901C531.469 172.511 532.026 172.563 532.583 172.672C533.14 172.787 533.682 172.948 534.203 173.167C534.729 173.381 535.224 173.651 535.698 173.964C536.167 174.282 536.604 174.636 537.005 175.037C537.406 175.438 537.765 175.875 538.078 176.344C538.396 176.818 538.661 177.313 538.875 177.839C539.094 178.365 539.255 178.901 539.37 179.459C539.479 180.016 539.536 180.578 539.536 181.141V210.422C539.536 210.99 539.479 211.552 539.37 212.11C539.255 212.662 539.094 213.203 538.875 213.729C538.661 214.25 538.396 214.75 538.078 215.219C537.765 215.693 537.406 216.131 537.005 216.526C536.604 216.927 536.167 217.287 535.698 217.604C535.224 217.917 534.729 218.183 534.203 218.401C533.682 218.62 533.14 218.782 532.583 218.891C532.026 219 531.469 219.058 530.901 219.058H282.068C281.5 219.058 280.937 219 280.38 218.891C279.823 218.782 279.286 218.62 278.76 218.401C278.239 218.183 277.739 217.917 277.271 217.604C276.797 217.287 276.359 216.927 275.958 216.526C275.557 216.131 275.203 215.693 274.885 215.219C274.573 214.75 274.307 214.25 274.088 213.729C273.87 213.203 273.708 212.662 273.599 212.11C273.484 211.552 273.432 210.99 273.432 210.422V181.141C273.432 180.578 273.484 180.016 273.599 179.459C273.708 178.901 273.87 178.365 274.088 177.839C274.307 177.313 274.573 176.818 274.885 176.344C275.203 175.875 275.557 175.438 275.958 175.037C276.359 174.636 276.797 174.282 277.271 173.964C277.739 173.651 278.239 173.381 278.76 173.167C279.286 172.948 279.823 172.787 280.38 172.672C280.937 172.563 281.5 172.511 282.068 172.511Z" fill="#4D9DB8"/>
<path d="M139.594 172.511H225.349C225.917 172.511 226.479 172.563 227.037 172.672C227.594 172.787 228.13 172.948 228.656 173.167C229.177 173.381 229.677 173.651 230.151 173.964C230.62 174.282 231.057 174.636 231.458 175.037C231.86 175.438 232.214 175.875 232.531 176.344C232.844 176.818 233.11 177.313 233.328 177.839C233.547 178.365 233.708 178.901 233.818 179.459C233.932 180.016 233.985 180.578 233.985 181.141V210.422C233.985 210.99 233.932 211.552 233.818 212.11C233.708 212.662 233.547 213.203 233.328 213.729C233.11 214.25 232.844 214.75 232.531 215.219C232.214 215.693 231.86 216.131 231.458 216.526C231.057 216.927 230.62 217.287 230.151 217.604C229.677 217.917 229.177 218.183 228.656 218.401C228.13 218.62 227.594 218.782 227.037 218.891C226.479 219 225.917 219.058 225.349 219.058H139.594C139.026 219.058 138.469 219 137.912 218.891C137.354 218.782 136.813 218.62 136.292 218.401C135.766 218.183 135.271 217.917 134.797 217.604C134.328 217.287 133.891 216.927 133.49 216.526C133.089 216.131 132.729 215.693 132.417 215.219C132.099 214.75 131.833 214.25 131.62 213.729C131.401 213.203 131.235 212.662 131.125 212.11C131.016 211.552 130.958 210.99 130.958 210.422V181.141C130.958 180.578 131.016 180.016 131.125 179.459C131.235 178.901 131.401 178.365 131.62 177.839C131.833 177.313 132.099 176.818 132.417 176.344C132.729 175.875 133.089 175.438 133.49 175.037C133.891 174.636 134.328 174.282 134.797 173.964C135.271 173.651 135.766 173.381 136.292 173.167C136.813 172.948 137.354 172.787 137.912 172.672C138.469 172.563 139.026 172.511 139.594 172.511Z" fill="#AFE1E3"/>
<path d="M357.422 84.9268H433.172C433.74 84.9268 434.297 84.9788 434.854 85.0934C435.412 85.2028 435.953 85.3643 436.474 85.583C437 85.8018 437.495 86.0674 437.969 86.3799C438.438 86.6976 438.875 87.0518 439.276 87.4528C439.677 87.8538 440.037 88.2913 440.349 88.7653C440.667 89.234 440.932 89.734 441.146 90.2549C441.365 90.7809 441.531 91.3174 441.641 91.8747C441.75 92.432 441.807 92.9945 441.807 93.5622V122.838C441.807 123.406 441.75 123.968 441.641 124.526C441.531 125.083 441.365 125.619 441.146 126.146C440.932 126.666 440.667 127.166 440.349 127.635C440.037 128.109 439.677 128.547 439.276 128.948C438.875 129.349 438.438 129.703 437.969 130.021C437.495 130.333 437 130.599 436.474 130.817C435.953 131.036 435.412 131.198 434.854 131.307C434.297 131.422 433.74 131.474 433.172 131.474H357.422C356.854 131.474 356.292 131.422 355.74 131.307C355.182 131.198 354.641 131.036 354.12 130.817C353.594 130.599 353.094 130.333 352.625 130.021C352.151 129.703 351.719 129.349 351.318 128.948C350.917 128.547 350.557 128.109 350.245 127.635C349.927 127.166 349.662 126.666 349.443 126.146C349.229 125.619 349.063 125.083 348.953 124.526C348.844 123.968 348.787 123.406 348.787 122.838V93.5622C348.787 92.9945 348.844 92.432 348.953 91.8747C349.063 91.3174 349.229 90.7809 349.443 90.2549C349.662 89.734 349.927 89.234 350.245 88.7653C350.557 88.2913 350.917 87.8538 351.318 87.4528C351.719 87.0518 352.151 86.6976 352.625 86.3799C353.094 86.0674 353.594 85.8018 354.12 85.583C354.641 85.3643 355.182 85.2028 355.74 85.0934C356.292 84.9788 356.854 84.9268 357.422 84.9268Z" fill="#AFE1E3"/>
<path d="M489.297 84.9268H530.901C531.469 84.9268 532.026 84.9788 532.583 85.0934C533.141 85.2028 533.682 85.3643 534.203 85.583C534.729 85.8018 535.224 86.0674 535.698 86.3799C536.167 86.6976 536.604 87.0518 537.005 87.4528C537.406 87.8538 537.766 88.2913 538.078 88.7653C538.396 89.234 538.662 89.734 538.875 90.2549C539.094 90.7809 539.255 91.3174 539.37 91.8747C539.479 92.432 539.537 92.9945 539.537 93.5622V122.838C539.537 123.406 539.479 123.968 539.37 124.526C539.255 125.083 539.094 125.619 538.875 126.146C538.662 126.666 538.396 127.166 538.078 127.635C537.766 128.109 537.406 128.547 537.005 128.948C536.604 129.349 536.167 129.703 535.698 130.021C535.224 130.333 534.729 130.599 534.203 130.817C533.682 131.036 533.141 131.198 532.583 131.307C532.026 131.422 531.469 131.474 530.901 131.474H489.297C488.729 131.474 488.167 131.422 487.61 131.307C487.057 131.198 486.516 131.036 485.99 130.817C485.469 130.599 484.969 130.333 484.5 130.021C484.026 129.703 483.589 129.349 483.193 128.948C482.792 128.547 482.432 128.109 482.115 127.635C481.802 127.166 481.537 126.666 481.318 126.146C481.099 125.619 480.938 125.083 480.828 124.526C480.719 123.968 480.662 123.406 480.662 122.838V93.5622C480.662 92.9945 480.719 92.432 480.828 91.8747C480.938 91.3174 481.099 90.7809 481.318 90.2549C481.537 89.734 481.802 89.234 482.115 88.7653C482.432 88.2913 482.792 87.8538 483.193 87.4528C483.589 87.0518 484.026 86.6976 484.5 86.3799C484.969 86.0674 485.469 85.8018 485.99 85.583C486.516 85.3643 487.057 85.2028 487.61 85.0934C488.167 84.9788 488.729 84.9268 489.297 84.9268Z" fill="#4D9DB8"/>
<path d="M139.594 345.104H300.709C301.276 345.104 301.839 345.157 302.391 345.271C302.948 345.381 303.49 345.542 304.011 345.761C304.537 345.979 305.031 346.245 305.505 346.558C305.974 346.875 306.412 347.229 306.813 347.631C307.214 348.032 307.573 348.469 307.886 348.943C308.203 349.412 308.469 349.912 308.688 350.433C308.901 350.959 309.068 351.495 309.177 352.052C309.287 352.61 309.344 353.172 309.344 353.74V383.016C309.344 383.584 309.287 384.146 309.177 384.703C309.068 385.261 308.901 385.797 308.688 386.323C308.469 386.844 308.203 387.344 307.886 387.813C307.573 388.287 307.214 388.724 306.813 389.125C306.412 389.526 305.974 389.881 305.505 390.198C305.031 390.511 304.537 390.776 304.011 390.995C303.49 391.214 302.948 391.375 302.391 391.485C301.839 391.599 301.276 391.651 300.709 391.651H139.594C139.026 391.651 138.469 391.599 137.912 391.485C137.354 391.375 136.813 391.214 136.292 390.995C135.766 390.776 135.271 390.511 134.797 390.198C134.328 389.881 133.891 389.526 133.49 389.125C133.089 388.724 132.729 388.287 132.417 387.813C132.099 387.344 131.833 386.844 131.62 386.323C131.401 385.797 131.235 385.261 131.125 384.703C131.016 384.146 130.958 383.584 130.958 383.016V353.74C130.958 353.172 131.016 352.61 131.125 352.052C131.235 351.495 131.401 350.959 131.62 350.433C131.833 349.912 132.099 349.412 132.417 348.943C132.729 348.469 133.089 348.032 133.49 347.631C133.891 347.229 134.328 346.875 134.797 346.558C135.271 346.245 135.766 345.979 136.292 345.761C136.813 345.542 137.354 345.381 137.912 345.271C138.469 345.157 139.026 345.104 139.594 345.104Z" fill="#65D0E7"/>
<path d="M282.068 432.688H530.901C531.469 432.688 532.026 432.74 532.583 432.854C533.14 432.964 533.682 433.125 534.203 433.344C534.729 433.563 535.224 433.828 535.698 434.141C536.167 434.458 536.604 434.813 537.005 435.214C537.406 435.615 537.765 436.052 538.078 436.521C538.396 436.995 538.661 437.495 538.875 438.016C539.094 438.542 539.255 439.078 539.37 439.635C539.479 440.193 539.536 440.755 539.536 441.323V470.599C539.536 471.167 539.479 471.729 539.37 472.286C539.255 472.839 539.094 473.38 538.875 473.906C538.661 474.427 538.396 474.927 538.078 475.396C537.765 475.87 537.406 476.307 537.005 476.708C536.604 477.109 536.167 477.464 535.698 477.781C535.224 478.094 534.729 478.359 534.203 478.578C533.682 478.797 533.14 478.958 532.583 479.068C532.026 479.182 531.469 479.234 530.901 479.234H282.068C281.5 479.234 280.937 479.182 280.38 479.068C279.823 478.958 279.286 478.797 278.76 478.578C278.239 478.359 277.739 478.094 277.271 477.781C276.797 477.464 276.359 477.109 275.958 476.708C275.557 476.307 275.203 475.87 274.885 475.396C274.573 474.927 274.307 474.427 274.088 473.906C273.87 473.38 273.708 472.839 273.599 472.286C273.484 471.729 273.432 471.167 273.432 470.599V441.323C273.432 440.755 273.484 440.193 273.599 439.635C273.708 439.078 273.87 438.542 274.088 438.016C274.307 437.495 274.573 436.995 274.885 436.521C275.203 436.052 275.557 435.615 275.958 435.214C276.359 434.813 276.797 434.458 277.271 434.141C277.739 433.828 278.239 433.563 278.76 433.344C279.286 433.125 279.823 432.964 280.38 432.854C280.937 432.74 281.5 432.688 282.068 432.688Z" fill="#4D9DB8"/>
<path d="M139.594 432.688H225.349C225.917 432.688 226.479 432.74 227.037 432.854C227.594 432.964 228.13 433.125 228.656 433.344C229.177 433.563 229.677 433.828 230.151 434.141C230.62 434.458 231.057 434.813 231.458 435.214C231.86 435.615 232.214 436.052 232.531 436.521C232.844 436.995 233.11 437.495 233.328 438.016C233.547 438.542 233.708 439.078 233.818 439.635C233.932 440.193 233.985 440.755 233.985 441.323V470.599C233.985 471.167 233.932 471.729 233.818 472.286C233.708 472.839 233.547 473.38 233.328 473.906C233.11 474.427 232.844 474.927 232.531 475.396C232.214 475.87 231.86 476.307 231.458 476.708C231.057 477.109 230.62 477.464 230.151 477.781C229.677 478.094 229.177 478.359 228.656 478.578C228.13 478.797 227.594 478.958 227.037 479.068C226.479 479.182 225.917 479.234 225.349 479.234H139.594C139.026 479.234 138.469 479.182 137.912 479.068C137.354 478.958 136.813 478.797 136.292 478.578C135.766 478.359 135.271 478.094 134.797 477.781C134.328 477.464 133.891 477.109 133.49 476.708C133.089 476.307 132.729 475.87 132.417 475.396C132.099 474.927 131.833 474.427 131.62 473.906C131.401 473.38 131.235 472.839 131.125 472.286C131.016 471.729 130.958 471.167 130.958 470.599V441.323C130.958 440.755 131.016 440.193 131.125 439.635C131.235 439.078 131.401 438.542 131.62 438.016C131.833 437.495 132.099 436.995 132.417 436.521C132.729 436.052 133.089 435.615 133.49 435.214C133.891 434.813 134.328 434.458 134.797 434.141C135.271 433.828 135.766 433.563 136.292 433.344C136.813 433.125 137.354 432.964 137.912 432.854C138.469 432.74 139.026 432.688 139.594 432.688Z" fill="#AFE1E3"/>
<path d="M357.422 345.104H433.172C433.74 345.104 434.297 345.157 434.854 345.271C435.412 345.381 435.953 345.542 436.474 345.761C437 345.979 437.495 346.245 437.969 346.558C438.438 346.875 438.875 347.229 439.276 347.631C439.677 348.032 440.037 348.469 440.349 348.943C440.667 349.412 440.932 349.912 441.146 350.433C441.365 350.959 441.531 351.495 441.641 352.052C441.75 352.61 441.807 353.172 441.807 353.74V383.016C441.807 383.584 441.75 384.146 441.641 384.703C441.531 385.261 441.365 385.797 441.146 386.323C440.932 386.844 440.667 387.344 440.349 387.813C440.037 388.287 439.677 388.724 439.276 389.125C438.875 389.526 438.438 389.881 437.969 390.198C437.495 390.511 437 390.776 436.474 390.995C435.953 391.214 435.412 391.375 434.854 391.485C434.297 391.599 433.74 391.651 433.172 391.651H357.422C356.854 391.651 356.292 391.599 355.74 391.485C355.182 391.375 354.641 391.214 354.12 390.995C353.594 390.776 353.094 390.511 352.625 390.198C352.151 389.881 351.719 389.526 351.318 389.125C350.917 388.724 350.557 388.287 350.245 387.813C349.927 387.344 349.662 386.844 349.443 386.323C349.229 385.797 349.063 385.261 348.953 384.703C348.844 384.146 348.787 383.584 348.787 383.016V353.74C348.787 353.172 348.844 352.61 348.953 352.052C349.063 351.495 349.229 350.959 349.443 350.433C349.662 349.912 349.927 349.412 350.245 348.943C350.557 348.469 350.917 348.032 351.318 347.631C351.719 347.229 352.151 346.875 352.625 346.558C353.094 346.245 353.594 345.979 354.12 345.761C354.641 345.542 355.182 345.381 355.74 345.271C356.292 345.157 356.854 345.104 357.422 345.104Z" fill="#65D0E7"/>
<path d="M489.297 345.104H530.901C531.469 345.104 532.026 345.157 532.583 345.271C533.141 345.381 533.682 345.542 534.203 345.761C534.729 345.979 535.224 346.245 535.698 346.558C536.167 346.875 536.604 347.229 537.005 347.631C537.406 348.032 537.766 348.469 538.078 348.943C538.396 349.412 538.662 349.912 538.875 350.433C539.094 350.959 539.255 351.495 539.37 352.052C539.479 352.61 539.537 353.172 539.537 353.74V383.016C539.537 383.584 539.479 384.146 539.37 384.703C539.255 385.261 539.094 385.797 538.875 386.323C538.662 386.844 538.396 387.344 538.078 387.813C537.766 388.287 537.406 388.724 537.005 389.125C536.604 389.526 536.167 389.881 535.698 390.198C535.224 390.511 534.729 390.776 534.203 390.995C533.682 391.214 533.141 391.375 532.583 391.485C532.026 391.599 531.469 391.651 530.901 391.651H489.297C488.729 391.651 488.167 391.599 487.61 391.485C487.057 391.375 486.516 391.214 485.99 390.995C485.469 390.776 484.969 390.511 484.5 390.198C484.026 389.881 483.589 389.526 483.193 389.125C482.792 388.724 482.432 388.287 482.115 387.813C481.802 387.344 481.537 386.844 481.318 386.323C481.099 385.797 480.938 385.261 480.828 384.703C480.719 384.146 480.662 383.584 480.662 383.016V353.74C480.662 353.172 480.719 352.61 480.828 352.052C480.938 351.495 481.099 350.959 481.318 350.433C481.537 349.912 481.802 349.412 482.115 348.943C482.432 348.469 482.792 348.032 483.193 347.631C483.589 347.229 484.026 346.875 484.5 346.558C484.969 346.245 485.469 345.979 485.99 345.761C486.516 345.542 487.057 345.381 487.61 345.271C488.167 345.157 488.729 345.104 489.297 345.104Z" fill="#AFE1E3"/>
<path d="M139.594 260.453H245.073C245.641 260.453 246.203 260.51 246.761 260.62C247.318 260.729 247.854 260.896 248.38 261.109C248.901 261.328 249.401 261.594 249.87 261.911C250.344 262.224 250.781 262.583 251.182 262.984C251.583 263.385 251.938 263.818 252.255 264.292C252.568 264.76 252.834 265.26 253.052 265.786C253.271 266.307 253.432 266.849 253.542 267.406C253.656 267.958 253.708 268.521 253.708 269.089V298.37C253.708 298.938 253.656 299.495 253.542 300.052C253.432 300.609 253.271 301.151 253.052 301.672C252.834 302.198 252.568 302.693 252.255 303.167C251.938 303.635 251.583 304.073 251.182 304.474C250.781 304.875 250.344 305.234 249.87 305.547C249.401 305.865 248.901 306.13 248.38 306.344C247.854 306.563 247.318 306.724 246.761 306.839C246.203 306.948 245.641 307.005 245.073 307.005H139.594C139.026 307.005 138.469 306.948 137.912 306.839C137.354 306.724 136.813 306.563 136.292 306.344C135.766 306.13 135.271 305.865 134.797 305.547C134.328 305.234 133.891 304.875 133.49 304.474C133.089 304.073 132.729 303.635 132.417 303.167C132.099 302.693 131.833 302.198 131.62 301.672C131.401 301.151 131.235 300.609 131.125 300.052C131.016 299.495 130.958 298.938 130.958 298.37V269.089C130.958 268.521 131.016 267.958 131.125 267.406C131.235 266.849 131.401 266.307 131.62 265.786C131.833 265.26 132.099 264.76 132.417 264.292C132.729 263.818 133.089 263.385 133.49 262.984C133.891 262.583 134.328 262.224 134.797 261.911C135.271 261.594 135.766 261.328 136.292 261.109C136.813 260.896 137.354 260.729 137.912 260.62C138.469 260.51 139.026 260.453 139.594 260.453Z" fill="#4D9DB8"/>
<path d="M421.297 260.453H526.776C527.344 260.453 527.906 260.51 528.464 260.62C529.021 260.729 529.557 260.896 530.083 261.109C530.604 261.328 531.104 261.594 531.578 261.911C532.047 262.224 532.485 262.583 532.886 262.984C533.287 263.385 533.641 263.818 533.958 264.292C534.271 264.76 534.537 265.26 534.755 265.786C534.974 266.307 535.136 266.849 535.245 267.406C535.36 267.958 535.412 268.521 535.412 269.089V298.37C535.412 298.938 535.36 299.495 535.245 300.052C535.136 300.609 534.974 301.151 534.755 301.672C534.537 302.198 534.271 302.693 533.958 303.167C533.641 303.635 533.287 304.073 532.886 304.474C532.485 304.875 532.047 305.234 531.578 305.547C531.104 305.865 530.604 306.13 530.083 306.344C529.557 306.563 529.021 306.724 528.464 306.839C527.906 306.948 527.344 307.005 526.776 307.005H421.297C420.729 307.005 420.172 306.948 419.615 306.839C419.057 306.724 418.516 306.563 417.995 306.344C417.469 306.13 416.974 305.865 416.5 305.547C416.031 305.234 415.594 304.875 415.193 304.474C414.792 304.073 414.432 303.635 414.12 303.167C413.802 302.693 413.537 302.198 413.323 301.672C413.104 301.151 412.943 300.609 412.828 300.052C412.719 299.495 412.662 298.938 412.662 298.37V269.089C412.662 268.521 412.719 267.958 412.828 267.406C412.943 266.849 413.104 266.307 413.323 265.786C413.537 265.26 413.802 264.76 414.12 264.292C414.432 263.818 414.792 263.385 415.193 262.984C415.594 262.583 416.031 262.224 416.5 261.911C416.974 261.594 417.469 261.328 417.995 261.109C418.516 260.896 419.057 260.729 419.615 260.62C420.172 260.51 420.729 260.453 421.297 260.453Z" fill="#AFE1E3"/>
<path d="M301.786 260.453H364.583C365.151 260.453 365.713 260.51 366.271 260.62C366.823 260.729 367.364 260.896 367.89 261.109C368.411 261.328 368.911 261.594 369.38 261.911C369.854 262.224 370.286 262.583 370.687 262.984C371.088 263.385 371.448 263.818 371.765 264.292C372.078 264.76 372.344 265.26 372.562 265.786C372.776 266.307 372.943 266.849 373.052 267.406C373.161 267.958 373.219 268.521 373.219 269.089V298.37C373.219 298.938 373.161 299.495 373.052 300.052C372.943 300.609 372.776 301.151 372.562 301.672C372.344 302.198 372.078 302.693 371.765 303.167C371.448 303.635 371.088 304.073 370.687 304.474C370.286 304.875 369.854 305.234 369.38 305.547C368.911 305.865 368.411 306.13 367.89 306.344C367.364 306.563 366.823 306.724 366.271 306.839C365.713 306.948 365.151 307.005 364.583 307.005H301.786C301.219 307.005 300.656 306.948 300.104 306.839C299.547 306.724 299.005 306.563 298.484 306.344C297.958 306.13 297.463 305.865 296.989 305.547C296.521 305.234 296.083 304.875 295.682 304.474C295.281 304.073 294.922 303.635 294.609 303.167C294.292 302.693 294.026 302.198 293.807 301.672C293.594 301.151 293.427 300.609 293.318 300.052C293.208 299.495 293.151 298.938 293.151 298.37V269.089C293.151 268.521 293.208 267.958 293.318 267.406C293.427 266.849 293.594 266.307 293.807 265.786C294.026 265.26 294.292 264.76 294.609 264.292C294.922 263.818 295.281 263.385 295.682 262.984C296.083 262.583 296.521 262.224 296.989 261.911C297.463 261.594 297.958 261.328 298.484 261.109C299.005 260.896 299.547 260.729 300.104 260.62C300.656 260.51 301.219 260.453 301.786 260.453Z" fill="#65D0E7"/>
</g>
<defs>
<clipPath id="clip0_540_2">
<rect width="677" height="583" fill="white"/>
</clipPath>
</defs>
</svg>
