<svg width="795" height="928" viewBox="0 0 795 928" fill="none" xmlns="http://www.w3.org/2000/svg">
<path d="M687.526 28.2184V458.01C687.526 473.265 678.334 490.911 666.938 497.349L30.1564 865C18.7606 871.619 9.56787 864.635 9.56787 849.375V419.588C9.56787 404.328 18.7606 386.682 30.1564 380.25L666.938 12.5934C678.151 5.9788 687.526 12.9632 687.526 28.2184Z" fill="#65D0E7"/>
<mask id="mask0_540_43" style="mask-type:luminance" maskUnits="userSpaceOnUse" x="7" y="7" width="683" height="864">
<path d="M7.36475 7.66699H690V870.334H7.36475V7.66699Z" fill="white"/>
</mask>
<g mask="url(#mask0_540_43)">
<path d="M681.276 9.6515C676.86 7.07858 671.349 7.44837 665.646 10.7557L28.87 378.412C17.1043 385.214 7.36475 403.782 7.36475 419.589V849.376C7.36475 858.198 10.3022 864.818 15.4533 867.943C17.2918 869.047 19.495 869.599 21.7033 869.599C24.6408 869.599 27.7658 868.678 30.8908 866.839L667.672 499.188C679.62 492.198 689.365 473.818 689.365 458.011V28.2192C689.547 19.3963 686.604 12.5942 681.276 9.6515ZM665.834 495.511L29.0575 863.162C24.8283 865.553 20.7814 866.105 17.6564 864.266C13.797 862.063 11.5939 856.547 11.5939 849.376V435.214L685.318 46.2348V458.011C685.318 472.349 676.495 489.261 665.834 495.511Z" fill="#143C3C"/>
</g>
<path d="M26.8491 405.25C26.8491 407.823 27.5835 409.661 29.0575 410.578C30.5262 411.317 32.547 411.13 34.7554 409.843C40.0835 406.718 44.6825 398.817 44.6825 392.75C44.6825 390.177 43.9429 388.338 42.4741 387.416C41.922 387.052 41.37 387.052 40.6356 387.052C39.5314 387.052 38.0627 387.416 36.7762 388.338C31.4429 391.093 26.8491 399 26.8491 405.25Z" fill="#65D0E7"/>
<path d="M56.8125 387.787C56.8125 390.36 57.5469 392.198 59.0208 393.115C60.4896 393.854 62.5104 393.667 64.7188 392.381C70.0469 389.256 74.6458 381.354 74.6458 375.287C74.6458 372.714 73.9063 370.875 72.4375 369.953C71.8854 369.589 71.3333 369.589 70.599 369.589C69.4948 369.589 68.026 369.953 66.7396 370.875C61.4063 373.818 56.8125 381.719 56.8125 387.787Z" fill="#4D9DB8"/>
<path d="M87.5103 370.141C87.5103 372.714 88.2446 374.552 89.7186 375.469C91.1873 376.203 93.2082 376.021 95.4165 374.734C100.745 371.609 105.344 363.703 105.344 357.641C105.344 355.062 104.609 353.224 103.135 352.307C102.583 351.937 102.036 351.938 101.297 351.938C100.198 351.938 98.7238 352.307 97.4373 353.224C92.1092 355.984 87.5103 363.891 87.5103 370.141Z" fill="#F5F5F5"/>
<path d="M736.974 56.161V485.947C736.974 501.208 727.781 518.854 716.386 525.286L79.6095 892.942C68.2085 899.562 59.021 892.573 59.021 877.317V447.531C59.021 432.27 68.2085 414.625 79.6095 408.192L716.386 40.536C727.781 33.9162 736.974 40.9058 736.974 56.161Z" fill="#4D9DB8"/>
<path d="M730.906 37.5939C726.495 35.021 720.979 35.3908 715.281 38.698L78.5052 406.354C66.5573 413.339 56.8125 431.719 56.8125 447.531V877.318C56.8125 886.141 59.7552 892.761 64.901 895.886C66.7396 896.99 68.9427 897.537 71.151 897.537C74.0938 897.537 77.2188 896.62 80.3438 894.781L717.12 527.125C729.068 520.141 738.813 501.761 738.813 485.948V56.1616C739.177 47.3387 736.052 40.7189 730.906 37.5939ZM734.953 74.1772V78.9585L692.854 121.052L642.672 171.24L542.302 271.61L492.115 321.792L240.823 573.083L190.641 623.271L90.2708 723.641L61.0417 752.865V741.287L103.135 699.188L165.823 636.505L253.693 548.636L316.375 485.948L404.432 397.714L467.115 335.026L554.984 247.156L617.854 184.474L705.724 96.6043L718.776 83.3699L734.953 74.1772ZM680.172 271.792L642.484 309.474L529.615 422.344L491.932 460.031L379.063 572.901L341.375 610.583L228.505 723.453L190.823 761.141L77.9531 874.011L63.7969 888.162C62.3281 885.776 61.5937 882.651 61.4063 878.974L241.745 698.636L317.115 623.271L392.479 547.901L467.849 472.531L490.464 449.922L493.036 447.344L735.688 204.693V216.276L680.172 271.792ZM667.672 271.792L642.484 296.974L516.932 422.531L491.75 447.714L366.193 573.266L341.375 598.083L215.823 723.641L190.641 748.823L65.0833 874.375L61.0417 878.422C61.0417 878.052 61.0417 877.688 61.0417 877.318V866.656L734.583 193.115V204.693L667.672 271.792ZM655.172 271.792L642.672 284.292L504.615 422.344L492.115 434.844L354.063 572.901L341.563 585.401L203.505 723.453L61.4063 865.552V853.974L735.135 180.245V191.828L655.172 271.792ZM642.484 271.792L61.224 853.052V841.474L166.188 736.505L203.875 698.823L316.745 585.953L354.427 548.266L467.297 435.396L504.984 397.714L617.854 284.844L655.536 247.156L734.953 167.745V179.328L642.484 271.792ZM629.984 271.792L61.0417 840.735V829.156L191.005 699.188L341.563 548.636L492.115 398.078L642.672 247.526L734.583 155.615V167.193L629.984 271.792ZM617.484 271.792L316.193 573.083L165.641 723.641L61.224 828.052V816.469L166.188 711.505L316.745 560.953L329.245 548.453L467.297 410.396L617.854 259.844L734.953 142.745V154.323L617.484 271.792ZM642.484 234.104L604.802 271.792L491.932 384.844L190.823 685.953L153.141 723.641L61.224 815.552V803.969L166.188 699.005L316.745 548.453L467.297 397.896L491.932 373.266L492.484 372.714L618.036 247.156L735.135 130.063V141.641L642.484 234.104ZM642.484 221.604L592.302 271.792L491.932 372.162L441.745 422.344L341.375 522.714L291.193 572.901L61.0417 803.052V791.469L166.005 686.505L304.063 548.453L316.563 535.953L454.615 397.896L605.167 247.344L617.672 234.844L734.766 117.745V129.323L642.484 221.604ZM730.354 121.235L642.484 209.104L579.802 271.792L491.932 359.662L429.245 422.344L341.375 510.214L278.693 572.901L190.823 660.771L128.135 723.453L61.224 790.37V778.787L316.927 523.083L442.484 397.531L467.667 372.344L491.75 348.266L492.667 347.344L735.318 104.693V116.271L730.354 121.235ZM717.854 121.235L567.115 271.974L491.75 347.344L190.271 648.823L114.901 724.188L60.6719 778.417V766.839L127.953 699.557L165.641 661.875L278.51 549L734.401 93.1095V104.693L717.854 121.235ZM705.354 121.235L642.672 183.922L554.802 271.792L492.115 334.474L404.245 422.344L341.563 485.031L253.693 572.901L191.005 635.583L103.135 723.453L61.0417 765.365V753.787L490.646 324.182L492.297 322.526L567.667 247.156L617.854 196.974L718.224 96.6043L734.766 80.0574V91.6408L705.354 121.235ZM680.172 121.235L61.4063 740V728.604L689.911 100.099L717.49 84.1043L680.172 121.235ZM63.4323 461.87L61.0417 464.261V463.339L63.4323 461.87ZM65.4531 460.583L93.026 444.589L61.0417 476.761V465.177L65.4531 460.583ZM95.2344 443.485L122.807 427.495L61.0417 489.261V477.677L95.2344 443.485ZM125.01 426.391L152.589 410.396L140.635 422.344L61.224 501.761V490.177L125.01 426.391ZM154.609 409.11L182.182 393.115L152.953 422.344L61.0417 514.261V502.677L154.609 409.11ZM166.005 410.396L184.203 392.198L211.781 376.203L61.0417 526.943V515.365L166.005 410.396ZM191.193 397.714L213.984 374.917L241.557 358.927L61.0417 539.443V527.865L191.193 397.714ZM166.005 435.396L203.693 397.714L243.766 357.641L271.339 341.646L61.224 551.761V540.177L166.005 435.396ZM65.6354 548.453L216.193 397.896L273.359 340.724L300.938 324.735L61.0417 564.63V553.047L65.6354 548.453ZM78.1354 548.453L302.958 323.63L330.531 307.636L215.641 422.531L190.453 447.714L64.901 573.266L60.8594 577.313V565.729L78.1354 548.453ZM90.8229 548.453L166.188 473.083L333.104 306.167L360.677 290.172L228.505 422.344L190.823 460.031L77.9531 572.901L61.4063 589.443V577.865L90.8229 548.453ZM103.323 548.453L166.005 485.766L253.875 397.896L316.563 335.214L362.333 289.438L389.906 273.448L341.193 322.162L240.823 422.344L190.641 472.531L61.0417 602.13V590.547L103.323 548.453ZM115.823 548.453L166.005 498.266L266.375 397.896L316.563 347.714L392.115 272.156L419.688 256.167L404.063 271.792L341.375 334.474L253.505 422.344L190.823 485.031L61.224 614.63V603.047L115.823 548.453ZM128.323 548.453L166.005 510.766L278.875 397.896L316.563 360.214L421.708 255.063L449.281 239.068L416.38 271.974L60.6719 627.682V616.099L128.323 548.453ZM141.005 548.453L166.188 523.266L291.745 397.714L316.927 372.526L442.484 246.974L451.859 237.599L479.432 221.604L429.432 271.61L341.563 359.479L278.875 422.162L191.005 510.031L128.323 572.719L61.4063 639.63V628.047L141.005 548.453ZM153.505 548.453L467.115 234.844L481.083 220.87L508.661 204.88L491.75 221.792L441.563 271.974L341.193 372.344L291.01 422.531L190.641 522.901L140.453 573.083L61.0417 652.495V640.917L153.505 548.453ZM166.005 548.453L491.75 222.708L492.297 222.156L510.865 203.594L538.438 187.599L454.245 271.792L341.375 384.844L303.693 422.531L61.224 665V653.235L166.005 548.453ZM166.005 560.953L540.646 186.313L568.219 170.318L316.193 422.344L165.641 572.901L61.224 677.313V665.735L166.005 560.953ZM191.193 548.453L341.745 397.896L570.24 169.401L597.818 153.406L178.141 573.083L61.0417 690V678.417L191.193 548.453ZM166.005 585.953L600.021 151.938L627.594 135.943L491.932 271.61L341.375 422.162L190.823 572.719L61.224 702.313V690.735L166.005 585.953ZM65.6354 699.005L166.005 598.636L216.193 548.453L316.563 448.083L366.745 397.896L467.115 297.526L517.302 247.344L629.62 135.026L657.193 119.031L654.984 121.235L642.484 133.735L504.432 271.792L491.932 284.292L353.875 422.344L341.375 434.844L203.323 572.901L61.224 715V703.417L65.6354 699.005ZM78.1354 699.005L166.005 611.136L228.693 548.453L316.563 460.583L379.245 397.896L492.115 285.026L529.802 247.344L617.672 159.474L659.214 117.927L686.786 101.932L667.302 121.422L642.12 146.604L516.563 272.156L491.38 297.344L61.0417 727.682V716.099L78.1354 699.005ZM63.9844 888.901L103.323 849.563L166.005 786.875L253.875 699.005L316.563 636.323L404.432 548.453L467.115 485.766L734.953 217.927V229.511L492.115 472.349L391.563 573.083L341.375 623.271L240.823 723.641L90.2708 874.193L71.3333 893.125C69.8646 893.125 68.3958 892.761 67.2917 892.026C66.0052 891.474 64.901 890.37 63.9844 888.901ZM78.6875 891.104C76.4844 892.391 74.276 893.125 72.2552 893.313L115.823 849.563L166.005 799.375L266.375 699.005L316.563 648.823L416.932 548.453L467.115 498.266L734.766 230.615V242.193L705.172 271.792L642.484 334.474L554.615 422.344L491.932 485.031L404.063 572.901L341.375 635.583L253.505 723.453L190.823 786.141L102.953 874.011L96.3333 880.625L78.6875 891.104ZM734.031 494.037L690.099 537.974L662.521 553.964L668.036 548.453L734.953 481.537V485.766C734.953 488.521 734.583 491.281 734.031 494.037ZM715.281 523.448L692.12 536.87L733.667 495.323C731.089 507.089 723.922 518.49 715.281 523.448ZM660.5 555.068L632.927 571.063L734.953 469.037V480.62L660.5 555.068ZM630.719 572.349L603.146 588.344L734.953 456.537V468.12L630.719 572.349ZM617.484 573.083L601.125 589.443L573.552 605.438L734.953 444.037V455.62L617.484 573.083ZM642.484 535.401L571.344 606.542L543.771 622.531L617.854 548.453L734.953 431.354V442.932L642.484 535.401ZM642.484 522.901L592.302 573.083L541.563 623.818L513.99 639.813L605.354 548.453L734.953 418.854V430.432L642.484 522.901ZM730.354 422.344L642.484 510.214L579.802 572.901L511.969 640.735L484.396 656.724L734.953 406.167V417.75L730.354 422.344ZM717.854 422.344L567.115 573.083L491.75 648.453L482.005 658.198L454.432 674.188L734.766 393.854V405.432L717.854 422.344ZM705.354 422.344L642.672 485.031L554.802 572.901L492.115 635.583L452.776 674.922L425.203 690.917L735.135 380.985V392.568L705.354 422.344ZM692.672 422.344L491.932 623.083L422.813 692.386L395.24 708.38L490.276 613.344L492.297 611.318L555.167 548.453L734.953 368.667V380.25L692.672 422.344ZM680.172 422.344L491.932 610.583L393.219 709.302L365.641 725.292L392.115 698.823L542.854 548.083L618.219 472.714L735.318 355.615V367.198L680.172 422.344ZM667.672 422.344L491.932 598.083L366.38 723.641L363.438 726.578L335.865 742.573L379.427 699.005L492.297 586.136L529.984 548.453L617.854 460.583L680.536 397.896L734.766 343.667V355.25L667.672 422.344ZM655.172 422.344L334.026 743.49L306.448 759.485L316.927 749.005L367.115 698.823L467.484 598.453L517.667 548.266L618.036 447.896L668.224 397.714L735.135 330.802V342.38L655.172 422.344ZM642.484 422.344L491.932 572.901L341.375 723.453L304.063 760.771L276.484 776.766L734.953 318.297V329.88L642.484 422.344ZM629.984 422.344L479.432 572.901L328.875 723.453L274.464 777.87L246.891 793.86L734.953 305.797V317.38L629.984 422.344ZM617.484 422.344L466.932 572.901L316.193 723.641L244.682 795.146L217.109 811.141L734.953 293.297V304.88L617.484 422.344ZM642.484 384.844L604.802 422.344L215.089 812.057L187.516 828.052L316.745 698.823L467.297 548.266L491.932 523.636L735.135 280.432V292.011L642.484 384.844ZM642.484 372.162L441.745 572.901L341.375 673.453L291.193 723.641L190.823 824.011L185.49 829.339L157.917 845.334L166.188 837.057L304.245 699.005L734.953 268.297V279.88L642.484 372.162ZM730.354 271.792L155.714 846.432L128.135 862.427L141.005 849.563L166.188 824.375L291.745 698.823L316.927 673.636L442.484 548.083L593.036 397.531L618.219 372.344L735.318 255.245V266.828L730.354 271.792ZM717.854 271.792L567.115 422.531L491.75 497.901L416.38 573.266L190.271 799.375L125.38 864.084L97.8073 880.073L127.953 849.927L165.641 812.245L278.51 699.375L316.193 661.688L734.401 243.479V255.063L717.854 271.792Z" fill="#143C3C"/>
<path d="M76.4844 433.193C76.4844 435.766 77.2187 437.604 78.6875 438.521C80.1563 439.256 82.1823 439.073 84.3854 437.787C89.7188 434.662 94.3125 426.756 94.3125 420.693C94.3125 418.12 93.5781 416.282 92.1094 415.36C91.5573 414.995 91.0052 414.995 90.2708 414.995C89.1667 414.995 87.6979 415.36 86.4115 416.282C80.8958 419.037 76.4844 426.943 76.4844 433.193Z" fill="#65D0E7"/>
<path d="M106.448 415.912C106.448 418.485 107.182 420.323 108.651 421.245C110.125 421.979 112.146 421.792 114.349 420.506C119.682 417.381 124.276 409.479 124.276 403.412C124.276 400.839 123.542 399 122.073 398.078C121.521 397.714 120.969 397.714 120.234 397.714C119.13 397.714 117.661 398.078 116.375 399C111.042 401.756 106.448 409.662 106.448 415.912Z" fill="#4D9DB8"/>
<path d="M137.146 398.078C137.146 400.656 137.88 402.494 139.349 403.411C140.823 404.146 142.844 403.963 145.052 402.677C150.38 399.552 154.974 391.646 154.974 385.578C154.974 383.005 154.24 381.166 152.771 380.25C152.219 379.88 151.667 379.88 150.932 379.88C149.828 379.88 148.36 380.25 147.073 381.166C141.74 384.109 137.146 391.828 137.146 398.078Z" fill="#F5F5F5"/>
<path d="M766.015 69.7653L129.239 437.422C117.844 444.036 108.651 461.682 108.651 476.76V906.547C108.651 921.802 117.844 928.791 129.239 922.172L766.015 554.515C777.417 547.901 786.604 530.25 786.604 515.177V85.3903C786.604 70.1299 777.417 63.1455 766.015 69.7653Z" fill="#F5F5F5"/>
<mask id="mask1_540_43" style="mask-type:luminance" maskUnits="userSpaceOnUse" x="106" y="65" width="683" height="863">
<path d="M106 65H788.365V927.667H106V65Z" fill="white"/>
</mask>
<g mask="url(#mask1_540_43)">
<path d="M780.542 66.8234C776.13 64.2505 770.614 64.6202 764.917 67.9275L128.135 435.584C116.187 442.568 106.448 460.948 106.448 476.761V906.547C106.448 915.37 109.385 921.99 114.536 925.115C116.375 926.214 118.578 926.766 120.786 926.766C123.724 926.766 126.849 925.849 129.974 924.011L766.755 556.355C778.703 549.37 788.443 530.99 788.443 515.178V85.3911C788.63 76.5682 785.687 69.9484 780.542 66.8234ZM764.917 552.678L128.135 920.334C123.911 922.724 119.864 923.277 116.739 921.438C112.88 919.23 110.672 913.714 110.672 906.547V492.386L784.401 103.407V515.178C784.401 529.516 775.76 546.428 764.917 552.678Z" fill="#143C3C"/>
</g>
<path d="M125.932 462.422C125.932 464.995 126.667 466.833 128.135 467.75C129.609 468.484 131.63 468.302 133.838 467.016C139.167 463.891 143.76 455.984 143.76 449.922C143.76 447.344 143.026 445.505 141.557 444.589C141.005 444.219 140.453 444.219 139.719 444.219C138.614 444.219 137.146 444.589 135.859 445.505C130.526 448.266 125.932 456.172 125.932 462.422Z" fill="#65D0E7"/>
<path d="M155.896 445.14C155.896 447.713 156.63 449.552 158.099 450.468C159.573 451.208 161.594 451.021 163.802 449.734C169.13 446.609 173.729 438.708 173.729 432.64C173.729 430.067 172.99 428.229 171.521 427.307C170.969 426.942 170.417 426.942 169.682 426.942C168.578 426.942 167.11 427.307 165.823 428.229C160.49 430.984 155.896 438.89 155.896 445.14Z" fill="#4D9DB8"/>
<path d="M186.776 427.307C186.776 429.88 187.515 431.719 188.984 432.641C190.453 433.375 192.479 433.193 194.682 431.906C200.015 428.781 204.609 420.875 204.609 414.807C204.609 412.234 203.875 410.396 202.406 409.479C201.854 409.109 201.302 409.109 200.568 409.109C199.463 409.109 197.989 409.479 196.703 410.396C191.375 413.339 186.776 421.057 186.776 427.307Z" fill="#F5F5F5"/>
<path d="M486.047 529.885L217.292 685.036V489.073L486.047 333.927V529.885Z" fill="#65D0E7"/>
<path d="M677.964 304.698L513.438 399.734V318.115L677.964 223.078V304.698ZM677.964 330.25L513.438 425.286V514.26L677.964 419.219V330.25Z" fill="#4D9DB8"/>
<path d="M488.255 530.99V330.25L216.375 487.234L215.271 487.786V688.526L487.151 531.724L488.255 530.99ZM484.026 528.599L219.5 681.359V490.359L484.026 337.599V528.599Z" fill="#143C3C"/>
<path d="M512.339 316.276L511.234 316.828V403.229L678.885 306.536L679.984 305.984V219.583L512.339 316.276ZM675.76 303.593L515.464 396.057V319.401L675.76 226.937V303.593Z" fill="#143C3C"/>
<path d="M511.234 424V517.75L678.885 421.057L679.984 420.505V326.755L512.339 423.448L511.234 424ZM515.464 426.39L675.76 333.927V417.932L515.464 510.401V426.39Z" fill="#143C3C"/>
<path d="M217.292 739.448L537.151 554.703V543.489L217.292 728.052V739.448Z" fill="#143C3C"/>
<path d="M217.292 797.536L537.151 612.792V601.578L217.292 786.323V797.536Z" fill="#143C3C"/>
<path d="M217.292 826.584L537.151 642.021V630.62L217.292 815.37V826.584Z" fill="#143C3C"/>
<path d="M217.292 768.49L537.151 583.745V572.531L217.292 757.281V768.49Z" fill="#143C3C"/>
</svg>
