<svg width="432" height="432" viewBox="0 0 432 432" fill="none" xmlns="http://www.w3.org/2000/svg">
<g clip-path="url(#clip0_543_96)">
<mask id="mask0_543_96" style="mask-type:luminance" maskUnits="userSpaceOnUse" x="-1" y="-1" width="433" height="433">
<path d="M-0.333008 -0.129883H431.657V431.87H-0.333008V-0.129883Z" fill="white"/>
</mask>
<g mask="url(#mask0_543_96)">
<path d="M396.359 -0.129883H36.0356C16.1157 -0.129883 0.0888672 16.0785 0.0888672 35.7399V395.995C0.0888672 415.875 16.3296 431.87 36.0356 431.87H396.145C416.065 431.87 432.087 415.662 432.087 395.995V35.7399C432.306 16.0785 416.279 -0.129883 396.359 -0.129883ZM128.068 356.23H64.1856V164.761H128.068V356.23ZM96.02 141.636C75.8808 141.636 59.64 125.427 59.64 105.328C59.64 85.2295 75.8808 69.0212 96.02 69.0212C116.159 69.0212 132.395 85.2295 132.395 105.328C132.395 125.427 116.159 141.636 96.02 141.636ZM368.428 356.23H304.332L302.813 242.558C302.813 242.558 304.332 212.302 271.198 212.516C238.069 212.735 233.524 242.558 233.524 242.558V356.23H168.994V164.761H230.925V191.125C230.925 191.125 233.524 182.479 247.813 172.323C262.107 162.167 285.706 160.006 295.888 160.438C306.064 160.87 319.92 159.141 343.091 175.131C367.995 192.203 368.642 236.938 368.642 236.938L368.428 356.23Z" fill="#E6E6E6"/>
</g>
</g>
<defs>
<clipPath id="clip0_543_96">
<rect width="432" height="432" rx="100" fill="white"/>
</clipPath>
</defs>
</svg>
