<svg width="914" height="808" viewBox="0 0 914 808" fill="none" xmlns="http://www.w3.org/2000/svg">
<g clip-path="url(#clip0_532_436)">
<path d="M496.599 381.792C496.599 381.615 496.599 381.443 496.599 381.271C496.599 381.094 496.599 380.922 496.599 380.745C496.599 380.401 496.599 380.224 496.599 379.875C496.599 380.224 496.422 380.573 496.422 380.922V381.792H496.599Z" fill="#4D9DB8"/>
<mask id="mask0_532_436" style="mask-type:luminance" maskUnits="userSpaceOnUse" x="44" y="50" width="871" height="727">
<path d="M44.0781 50.0732H914.078V776.073H44.0781V50.0732Z" fill="white"/>
</mask>
<g mask="url(#mask0_532_436)">
<path d="M360.989 80.8493H44.229V775.917H739.302V601.193L790.588 652.485L846.219 596.849L891.073 641.703L913.677 619.105L846.219 551.818L790.588 607.453L739.302 556.167V459.677H739.995V459.157H770.073V50.0732H360.989V80.8493H361.859ZM635.161 428.907V389.615C635.161 384.745 634.64 380.052 633.771 375.532C632.901 371.011 631.51 366.667 629.771 362.49C628.38 359.188 626.64 356.058 624.729 352.933C624.208 351.886 623.51 350.844 622.818 349.974C619.687 345.453 616.036 341.282 611.864 337.631C610.474 336.24 608.734 335.021 607.172 333.808C604.39 331.719 601.26 329.636 597.953 328.068C595.521 326.677 593.088 325.636 590.479 324.594C583.698 321.985 576.396 320.417 568.922 320.073C567.88 320.073 566.833 320.073 565.792 320.073H563.182C561.271 320.073 559.187 320.245 557.276 320.594C556.578 320.594 556.057 320.766 555.359 320.766C554.318 320.943 553.276 321.287 552.234 321.464H551.885C549.797 321.985 547.713 322.334 545.797 322.855C543.542 323.547 541.104 324.594 539.021 325.459C539.021 325.636 539.021 325.636 538.844 325.636C538.844 325.636 538.672 325.636 538.672 325.808C538.672 325.808 538.495 325.808 538.323 325.985C538.323 325.985 538.323 325.985 538.151 325.985C537.63 326.157 537.281 326.328 536.76 326.506C534.151 327.719 531.542 329.11 529.109 330.677C528.588 331.026 528.068 331.198 527.547 331.547C527.547 331.547 527.547 331.547 527.37 331.719C527.198 331.719 527.198 331.719 527.021 331.719L526.849 331.896C526.849 331.896 526.849 331.896 526.677 331.896C526.677 331.896 526.677 331.896 526.5 331.896C526.151 332.068 525.807 332.417 525.458 332.589C521.635 335.37 518.156 338.5 515.026 341.98C513.114 343.891 511.552 345.974 509.984 348.063C508.073 350.495 506.51 353.105 505.114 355.886C502.333 360.927 500.25 366.141 498.859 371.881C498.682 372.578 498.51 373.271 498.338 373.969C498.161 374.834 497.989 375.703 497.818 376.573C497.818 376.922 497.64 377.271 497.64 377.62C497.64 378.141 497.469 378.662 497.469 379.011C497.469 379.183 497.469 379.183 497.469 379.355C497.469 380.052 497.292 380.573 497.292 381.271C497.12 382.485 496.948 383.526 496.948 384.745C496.948 385.443 496.948 386.136 496.771 387.006V428.037H392.458V323.724H353.687C351.255 323.724 348.823 323.547 346.562 323.375C330.047 321.636 315.443 314.334 304.489 303.381C302.229 301.12 300.318 298.688 298.406 296.078C296.838 293.995 295.276 291.735 293.885 289.474C292.318 286.865 290.755 284.084 289.713 281.302C286.234 272.959 284.146 263.917 284.146 254.354C284.146 244.792 286.062 235.927 289.536 227.584C290.578 224.974 291.969 222.193 293.364 219.584C295.448 216.104 297.536 212.979 300.14 210.021C304.312 204.808 309.354 200.459 314.922 196.636C326.047 189.157 339.432 184.813 353.864 184.813H392.635V80.8493H739.302V428.907H635.161Z" fill="#4D9DB8"/>
</g>
<path d="M496.948 379.01C496.948 379.182 496.948 379.354 496.948 379.531C496.948 379.01 497.12 378.484 497.12 378.141C497.12 377.964 497.12 377.792 497.12 377.62C497.12 377.443 497.12 377.443 497.12 377.271C497.12 377.271 497.12 377.094 497.12 376.922C497.12 377.792 497.12 378.313 496.948 379.01Z" fill="#4D9DB8"/>
<path d="M496.599 380.744C496.599 380.922 496.599 381.093 496.599 381.271C496.599 381.442 496.599 381.614 496.599 381.791V380.744C496.599 380.401 496.599 380.224 496.599 379.875C496.771 380.224 496.771 380.573 496.599 380.744ZM497.292 377.271C497.292 377.271 497.292 377.442 497.292 377.619C497.292 377.791 497.292 377.963 497.292 378.14C497.292 378.484 497.12 379.01 497.12 379.531C497.12 379.354 497.12 379.182 497.12 379.01C497.12 378.312 497.292 377.791 497.469 377.271C497.292 377.271 497.292 377.271 497.292 377.271Z" fill="#4D9DB8"/>
<mask id="mask1_532_436" style="mask-type:luminance" maskUnits="userSpaceOnUse" x="44" y="427" width="458" height="350">
<path d="M44.0781 427.667H501.333V776.073H44.0781V427.667Z" fill="white"/>
</mask>
<g mask="url(#mask1_532_436)">
<path d="M430.531 671.782C432.969 671.782 435.229 671.604 437.661 671.433C444.614 670.735 451.396 669 457.656 666.391C463.911 663.782 469.651 660.308 474.864 655.959C478.344 653.177 481.474 650.047 484.255 646.573C487.036 643.094 489.646 639.443 491.729 635.443C492.776 633.532 493.818 631.448 494.687 629.36C498.161 621.016 500.073 611.974 500.073 602.24C500.073 599.282 499.901 596.328 499.552 593.37C496.948 573.032 485.646 555.469 469.479 544.516C460.26 538.261 449.484 534.261 437.661 533.042C435.401 532.87 432.969 532.698 430.531 532.698H391.765V459.328H360.989V428.558H287.453V467.328C287.453 503.313 260.156 532.87 225.036 536.521C222.776 536.693 220.344 536.87 217.911 536.87C203.479 536.87 190.094 532.521 178.963 525.047C160.708 512.354 148.542 491.146 148.542 467.151V428.386H44.229V775.917H391.765V671.604H430.531V671.782Z" fill="#0B4F6C"/>
</g>
<mask id="mask2_532_436" style="mask-type:luminance" maskUnits="userSpaceOnUse" x="44" y="79" width="696" height="698">
<path d="M44.0781 79.667H740V776.073H44.0781V79.667Z" fill="white"/>
</mask>
<g mask="url(#mask2_532_436)">
<path d="M736.693 598.589L739.302 601.193V775.917H391.765V671.605H430.531C432.969 671.605 435.229 671.433 437.661 671.261C444.614 670.563 451.396 668.824 457.656 666.219C463.911 663.61 469.651 660.131 474.864 655.787C478.344 653.006 481.474 649.876 484.255 646.397C487.036 642.923 489.646 639.272 491.729 635.272C492.776 633.36 493.818 631.272 494.687 629.188C498.161 620.839 500.073 611.803 500.073 602.063C500.073 599.11 499.901 596.152 499.552 593.199C496.948 572.855 485.646 555.298 469.479 544.344C460.26 538.084 449.484 534.089 437.661 532.87C435.401 532.699 432.969 532.521 430.531 532.521H391.765V459.157H526.849V389.615C526.849 384.917 527.719 380.574 529.281 376.574C530.328 373.62 531.719 370.839 533.281 368.402C533.281 368.402 533.281 368.23 533.453 368.058C533.63 367.709 533.979 367.532 534.151 367.188C534.323 367.011 534.5 366.839 534.672 366.667C535.37 365.798 536.062 365.1 536.76 364.23C537.453 363.537 537.974 362.667 538.844 361.969C540.234 360.756 541.625 359.537 543.193 358.495C549.448 353.975 557.276 351.193 565.62 351.193C573.614 351.193 581.094 353.626 587.177 357.798C587.349 357.975 587.526 358.146 587.698 358.146C597.609 365.1 604.213 376.751 604.213 389.787V459.329H739.302V556.339L736.693 553.735L684.359 606.063L631.682 553.386L565.271 619.798L587.87 642.397L631.859 598.412L684.536 651.089L736.693 598.589ZM536.239 326.855C536.76 326.678 537.281 326.506 537.802 326.329C537.281 326.329 536.76 326.506 536.239 326.855ZM528.76 331.027C528.588 331.199 528.239 331.199 528.068 331.37C528.239 331.37 528.411 331.199 528.76 331.027ZM565.62 320.245C565.443 320.245 565.099 320.245 564.922 320.245C565.099 320.245 565.271 320.245 565.62 320.245ZM556.057 320.943C556.406 320.943 556.578 320.943 556.927 320.943C556.75 320.943 556.406 320.766 556.057 320.943ZM526.151 332.417L526.328 332.24C526.328 332.417 526.328 332.417 526.151 332.417ZM527.89 331.37C527.547 331.548 527.37 331.719 527.021 331.896C527.37 331.719 527.719 331.548 527.89 331.37ZM148.542 467.152C148.542 491.146 160.708 512.355 179.14 524.876C190.265 532.35 203.651 536.693 218.083 536.693C220.515 536.693 222.776 536.521 225.213 536.35C260.328 532.87 287.625 503.141 287.625 467.152V428.386H361.167V354.844H353.167C297.88 354.844 252.854 309.813 252.854 254.527C252.854 199.245 297.708 154.386 352.995 154.386H360.989V80.8496H44.229V428.386H148.542V467.152Z" fill="#88DFED"/>
</g>
<mask id="mask3_532_436" style="mask-type:luminance" maskUnits="userSpaceOnUse" x="360" y="50" width="555" height="603">
<path d="M360 50.0732H914.078V653H360V50.0732Z" fill="white"/>
</mask>
<g mask="url(#mask3_532_436)">
<path d="M360.99 80.8493V50.0732H770.073V459.157H739.302V80.8493H360.99ZM846.219 551.818L790.589 607.453L739.302 556.167V601.193L790.589 652.485L846.219 596.849L891.073 641.703L913.677 619.105L846.219 551.818Z" fill="#AFE1E3"/>
</g>
<path d="M736.693 553.557L739.302 556.167V601.193L736.693 598.589L684.359 650.917L631.682 598.24L587.698 642.224L565.099 619.625L631.51 553.208L684.188 605.891L736.693 553.557ZM496.599 381.792C496.599 381.094 496.771 380.573 496.771 379.875C496.771 380.224 496.599 380.573 496.599 380.922C496.599 381.094 496.599 381.443 496.599 381.792ZM497.292 377.094C497.12 377.964 496.948 378.661 496.948 379.531C496.948 379.01 497.12 378.484 497.12 378.141C497.12 377.792 497.292 377.443 497.292 377.094ZM443.922 428.385H391.766H496.078H443.922ZM537.802 326.156C537.802 326.156 537.974 326.156 538.151 326.156C537.974 326.156 537.974 326.156 537.802 326.156ZM635.161 428.385V389.615C635.161 384.745 634.641 380.052 633.771 375.531C632.901 371.01 631.51 366.667 629.771 362.49C628.38 359.188 626.641 356.057 624.729 352.932C624.208 351.885 623.51 350.844 622.818 349.974C619.688 345.453 616.036 341.281 611.865 337.63C610.474 336.24 608.734 335.021 607.172 333.807C604.391 331.719 601.26 329.635 597.953 328.068C595.521 326.677 593.089 325.635 590.479 324.594C582.828 321.635 574.484 320.073 565.792 320.073C565.62 320.073 565.271 320.073 565.099 320.073C562.49 320.073 559.88 320.245 557.276 320.594C556.578 320.594 556.057 320.766 555.359 320.766C554.318 320.943 553.276 321.286 552.234 321.464C552.057 321.464 552.057 321.464 551.885 321.464C549.797 321.984 547.714 322.333 545.797 322.854C543.542 323.547 541.104 324.594 539.021 325.464C539.021 325.635 539.021 325.635 538.844 325.635C538.844 325.635 538.672 325.635 538.672 325.807C538.672 325.807 538.495 325.807 538.323 325.984C538.323 325.984 538.323 325.984 538.151 325.984C537.63 326.156 537.281 326.328 536.76 326.505C534.151 327.719 531.542 329.109 529.109 330.677C528.589 331.026 528.068 331.198 527.547 331.547C527.37 331.719 527.198 331.719 527.021 331.719L526.849 331.896C526.849 331.896 526.849 331.896 526.677 331.896C526.677 331.896 526.677 331.896 526.5 331.896C526.151 332.068 525.807 332.417 525.458 332.589C521.635 335.37 518.156 338.5 515.026 341.979C513.115 343.891 511.552 345.974 509.984 348.063C508.073 350.495 506.51 353.104 505.12 355.885C502.333 360.927 500.25 366.141 498.859 371.88C498.682 372.578 498.51 373.271 498.339 373.969C498.161 374.833 497.99 375.703 497.818 376.573C497.818 376.922 497.641 377.271 497.641 377.62C497.641 378.141 497.469 378.661 497.469 379.01C497.469 379.182 497.469 379.182 497.469 379.354C497.469 380.052 497.292 380.573 497.292 381.271C497.12 382.484 496.948 383.526 496.948 384.745C496.948 385.443 496.948 386.135 496.771 387.005C496.771 387.703 496.771 388.568 496.771 389.266V428.036H392.458V323.724H353.688C334.391 323.724 317.005 315.901 304.49 303.38C302.229 301.12 300.318 298.688 298.406 296.078C296.839 293.995 295.276 291.734 293.885 289.474C292.318 286.865 290.755 284.083 289.714 281.302C286.234 272.958 284.146 263.917 284.146 254.354C284.146 244.792 286.063 235.927 289.536 227.583C290.578 224.974 291.969 222.193 293.365 219.583C295.448 216.104 297.536 212.979 300.141 210.021C304.313 204.807 309.354 200.458 314.922 196.635C326.047 189.161 339.432 184.813 353.865 184.813H392.635V80.5H361.859V154.385H353.865C326.219 154.385 301.188 165.688 282.932 183.771C276.672 190.026 271.281 197.156 266.76 204.807C265.547 206.891 264.5 208.979 263.286 211.24C262.24 213.5 261.198 215.583 260.328 217.844C259.807 219.411 259.115 220.974 258.589 222.536C255.115 232.625 253.375 243.401 253.375 254.703C253.375 261.656 254.073 268.438 255.464 274.87C256.333 278.87 257.375 282.865 258.766 286.865C259.286 288.432 259.807 289.995 260.505 291.557C261.026 293.125 261.719 294.516 262.417 296.078C263.109 297.469 263.807 299.036 264.5 300.427C265.198 301.818 266.068 303.208 266.76 304.771C271.109 312.422 276.672 319.552 282.932 325.807C284.672 327.547 286.406 329.109 288.146 330.677C290.057 332.24 291.797 333.807 293.708 335.198C294.927 336.068 296.318 337.109 297.708 337.979C313.703 348.755 333 355.193 353.688 355.193H361.688V459.505H527.547V389.964C527.547 385.266 528.411 380.922 529.979 376.922C531.021 373.969 532.411 371.182 533.979 368.75C533.979 368.75 533.979 368.578 534.151 368.401C534.323 368.057 534.672 367.88 534.844 367.536C535.021 367.359 535.193 367.188 535.37 367.01C536.063 366.141 536.76 365.448 537.453 364.578C538.151 363.708 538.672 363.016 539.542 362.318C540.932 361.099 542.323 359.885 543.885 358.839C550.146 354.323 557.797 351.542 566.313 351.542C574.313 351.542 581.786 353.974 587.87 358.146C588.047 358.318 588.219 358.495 588.396 358.495C598.479 365.448 604.911 377.094 604.911 390.135V459.677H739.995V428.906H635.161V428.385Z" fill="#4D9DB8"/>
</g>
<defs>
<clipPath id="clip0_532_436">
<rect width="914" height="808" fill="white"/>
</clipPath>
</defs>
</svg>
