<svg width="833" height="968" viewBox="0 0 833 968" fill="none" xmlns="http://www.w3.org/2000/svg">
<mask id="mask0_540_22" style="mask-type:luminance" maskUnits="userSpaceOnUse" x="205" y="133" width="608" height="584">
<path d="M205.853 133.763H812.45V716.664H205.853V133.763Z" fill="white"/>
</mask>
<g mask="url(#mask0_540_22)">
<path d="M432.493 134.882H355.214V165.269H432.493V134.882ZM458.435 203.698H206.757V234.092H458.435V203.698ZM801.515 272.508H680.132V302.915H801.515V272.508ZM367.723 341.343H206.757V371.725H367.723V341.343ZM555.75 410.153H206.757V440.528H555.75V410.153ZM780.77 440.528H1129.76V410.153H780.77V440.528ZM1038.05 616.595V646.989H1266.64V616.595H1038.05ZM465.721 646.989H1007.67V616.595H465.721V646.989ZM206.757 715.799H430.398V685.418H206.757V715.799Z" fill="#AFE1E3"/>
</g>
<mask id="mask1_540_22" style="mask-type:luminance" maskUnits="userSpaceOnUse" x="205" y="202" width="608" height="583">
<path d="M205.853 202.046H812.45V784.947H205.853V202.046Z" fill="white"/>
</mask>
<g mask="url(#mask1_540_22)">
<path d="M907.091 203.698H655.426V234.092H907.091V203.698ZM649.747 272.508H206.757V302.915H649.747V272.508ZM581.171 509.351H885.631V478.969H581.171V509.351ZM435.329 616.595H206.757V646.989H435.329V616.595ZM863.234 685.418V715.799H928.551V685.418H863.234ZM346.965 784.615H865.849V754.228H346.965V784.615Z" fill="#65D0E7"/>
</g>
<mask id="mask2_540_22" style="mask-type:luminance" maskUnits="userSpaceOnUse" x="45" y="39" width="768" height="896">
<path d="M45.5894 39.7178H812.45V934.835H45.5894V39.7178Z" fill="white"/>
</mask>
<g mask="url(#mask2_540_22)">
<path d="M45.5894 96.4596H75.9742V66.072H45.5894V96.4596ZM45.5894 165.269H75.9742V134.882H45.5894V165.269ZM625.034 203.698H488.813V234.092H625.034V203.698ZM45.5894 234.092H75.9742V203.698H45.5894V234.092ZM45.5894 302.915H75.9742V272.508H45.5894V302.915ZM732.243 341.343H398.095V371.724H732.243V341.343ZM45.5894 371.724H75.9742V341.343H45.5894V371.724ZM45.5894 440.527H75.9742V410.153H45.5894V440.527ZM550.799 478.969H206.757V509.35H550.799V478.969ZM45.5894 509.35H75.9742V478.969H45.5894V509.35ZM45.5894 578.153H75.9742V547.779H45.5894V578.153ZM45.5894 646.989H75.9742V616.595H45.5894V646.989ZM460.77 685.418V715.799H832.862V685.418H460.77ZM45.5894 715.799H75.9742V685.418H45.5894V715.799ZM206.757 784.615H316.574V754.227H206.757V784.615ZM45.5894 784.615H75.9742V754.227H45.5894V784.615ZM45.5894 853.425H75.9742V823.043H45.5894V853.425ZM128.561 934.25H143.411V40.2383H128.561V934.25Z" fill="#143C3C"/>
</g>
<mask id="mask3_540_22" style="mask-type:luminance" maskUnits="userSpaceOnUse" x="169" y="52" width="644" height="885">
<path d="M169.217 52.1572H812.45V936.723H169.217V52.1572Z" fill="white"/>
</mask>
<g mask="url(#mask3_540_22)">
<path d="M324.829 134.882H170.277V165.27H324.829V134.882ZM831.887 272.508V302.915H1020.9V272.508H831.887ZM586.115 440.528H750.392V410.153H586.115V440.528ZM170.277 578.154H339.68V547.779H170.277V578.154ZM278.657 823.044H170.277V853.425H278.657V823.044ZM266.434 110.408C267.709 110.408 268.971 109.94 269.933 108.97L315.39 63.5223C317.316 61.5967 317.316 58.448 315.39 56.5288C313.452 54.5836 310.323 54.5836 308.378 56.5288L262.94 101.97C261.002 103.903 261.002 107.038 262.94 108.97C263.91 109.94 265.172 110.408 266.434 110.408ZM228.692 111.677C229.648 112.653 230.91 113.127 232.185 113.127C233.44 113.127 234.715 112.653 235.685 111.677C237.623 109.751 237.623 106.615 235.691 104.683L213.75 82.7464L235.685 60.8095C237.604 58.8643 237.604 55.7416 235.685 53.8095C233.759 51.8773 230.617 51.8773 228.692 53.8095L203.244 79.2398C201.319 81.1785 201.319 84.3012 203.244 86.2399L228.692 111.677ZM350.986 53.8095C349.054 51.8773 345.925 51.8773 343.999 53.8095C342.074 55.7416 342.074 58.8838 343.999 60.8225V60.79L365.927 82.7268L343.999 104.683C342.074 106.609 342.074 109.751 343.999 111.696C344.962 112.659 346.237 113.127 347.492 113.127C348.754 113.127 350.029 112.659 350.986 111.696L376.427 86.2399C377.363 85.3031 377.871 84.067 377.871 82.7464C377.871 81.4062 377.363 80.1701 376.427 79.2333L350.986 53.8095ZM351.005 877.405C349.054 875.447 345.925 875.447 343.999 877.405C342.074 879.317 342.074 882.473 343.999 884.392L365.927 906.329L343.999 928.265C342.054 930.191 342.054 933.333 343.999 935.265C344.962 936.235 346.217 936.723 347.492 936.723C348.754 936.723 350.029 936.235 351.005 935.265L376.427 909.829C377.363 908.885 377.871 907.643 377.871 906.329C377.871 905.008 377.363 903.746 376.427 902.822L351.005 877.405ZM235.691 877.405C233.746 875.46 230.617 875.46 228.692 877.405V877.385L203.244 902.822C201.319 904.761 201.319 907.89 203.244 909.829L228.692 935.265C229.648 936.222 230.923 936.703 232.185 936.703C233.46 936.703 234.715 936.235 235.691 935.279C237.623 933.333 237.623 930.191 235.691 928.265L213.737 906.329L235.691 884.392C237.623 882.46 237.623 879.317 235.691 877.405ZM308.378 880.105L262.94 925.553C261.002 927.478 261.002 930.621 262.94 932.559C263.91 933.522 265.172 934.003 266.434 934.003C267.709 934.003 268.971 933.522 269.94 932.559L315.39 887.105C317.316 885.159 317.316 882.037 315.39 880.105C313.465 878.166 310.31 878.166 308.378 880.105Z" fill="#4D9DB8"/>
</g>
</svg>
